%FSLAX24Y24*%
%MOIN*%
G70*
G01*
G75*
%ADD10R,0.0472X0.0551*%
%ADD11R,0.0551X0.0472*%
%ADD12O,0.0689X0.0217*%
%ADD13O,0.0217X0.0689*%
%ADD14R,0.0906X0.0197*%
%ADD15R,0.0984X0.0787*%
%ADD16R,0.0945X0.1339*%
%ADD17R,0.0945X0.0787*%
%ADD18C,0.0120*%
%ADD19C,0.0200*%
%ADD20C,0.0250*%
%ADD21C,0.0550*%
%ADD22C,0.0591*%
%ADD23R,0.0591X0.0591*%
%ADD24C,0.0472*%
%ADD25C,0.0240*%
%ADD26C,0.0500*%
D10*
X27554Y25000D02*
D03*
X26846D02*
D03*
X29054D02*
D03*
X28346D02*
D03*
X37154Y29600D02*
D03*
X36446D02*
D03*
X25554Y24000D02*
D03*
X24846D02*
D03*
X23346Y29600D02*
D03*
X24054D02*
D03*
X24054Y24000D02*
D03*
X23346D02*
D03*
X24846Y29600D02*
D03*
X25554D02*
D03*
D11*
X26900Y26554D02*
D03*
Y25846D02*
D03*
X41000Y28454D02*
D03*
Y27746D02*
D03*
X36500Y28454D02*
D03*
Y27746D02*
D03*
X40100Y28454D02*
D03*
Y27746D02*
D03*
D12*
X30776Y25425D02*
D03*
Y25740D02*
D03*
Y26055D02*
D03*
Y26370D02*
D03*
Y26685D02*
D03*
X30776Y27000D02*
D03*
Y27315D02*
D03*
X30776Y27630D02*
D03*
Y27945D02*
D03*
Y28260D02*
D03*
Y28575D02*
D03*
X35224D02*
D03*
Y28260D02*
D03*
Y27945D02*
D03*
Y27630D02*
D03*
Y27315D02*
D03*
Y27000D02*
D03*
Y26685D02*
D03*
Y26370D02*
D03*
Y26055D02*
D03*
Y25740D02*
D03*
Y25425D02*
D03*
D13*
X31425Y29224D02*
D03*
X31740D02*
D03*
X32055D02*
D03*
X32370D02*
D03*
X32685Y29224D02*
D03*
X33000Y29224D02*
D03*
X33315D02*
D03*
X33630D02*
D03*
X33945D02*
D03*
X34260D02*
D03*
X34575D02*
D03*
X34575Y24776D02*
D03*
X34260D02*
D03*
X33945D02*
D03*
X33630D02*
D03*
X33315D02*
D03*
X33000D02*
D03*
X32685D02*
D03*
X32370D02*
D03*
X32055D02*
D03*
X31740D02*
D03*
X31425D02*
D03*
D14*
X25853Y27125D02*
D03*
Y26180D02*
D03*
Y26495D02*
D03*
Y27440D02*
D03*
Y26810D02*
D03*
D15*
X25814Y28562D02*
D03*
X25814Y25058D02*
D03*
X23648Y28562D02*
D03*
Y25058D02*
D03*
D16*
X37513Y24750D02*
D03*
X39087D02*
D03*
D17*
X37513Y28450D02*
D03*
X39087D02*
D03*
D21*
X39004Y32550D02*
D03*
X39595Y33141D02*
D03*
X37823Y32550D02*
D03*
X38414Y33141D02*
D03*
X36642Y32550D02*
D03*
X37233Y33141D02*
D03*
X35461Y32550D02*
D03*
X36052Y33141D02*
D03*
X34280Y32550D02*
D03*
X34870Y33141D02*
D03*
X33099Y32550D02*
D03*
X33689Y33141D02*
D03*
X31918Y32550D02*
D03*
X32508Y33141D02*
D03*
X29556Y32550D02*
D03*
X31327Y33141D02*
D03*
X28374Y32550D02*
D03*
X30737D02*
D03*
X41367D02*
D03*
X41957Y33141D02*
D03*
X30146D02*
D03*
X40776D02*
D03*
X28965D02*
D03*
X27193Y32550D02*
D03*
X26603Y33141D02*
D03*
X40185Y32550D02*
D03*
X27784Y33141D02*
D03*
X26012Y32550D02*
D03*
X25422Y33141D02*
D03*
X24831Y32550D02*
D03*
X24241Y33141D02*
D03*
X23650Y32550D02*
D03*
D22*
X42100Y24300D02*
D03*
Y25300D02*
D03*
Y26300D02*
D03*
Y27300D02*
D03*
Y28300D02*
D03*
D23*
Y29300D02*
D03*
D24*
X28100Y28100D02*
D03*
X27313D02*
D03*
M02*
