M48
;Layer_Color=9474304
;FILE_FORMAT=2:5
INCH,LZ
;TYPE=PLATED
T1F00S00C0.01200
T2F00S00C0.02362
T3F00S00C0.02800
T4F00S00C0.03200
T5F00S00C0.03543
%
T01
X0315Y0255
Y0259
X0326Y0256
X034Y0259
Y024
X0347
X0352Y0248
X0346Y0285
X0338
X0334Y0284
Y0299
X0342
X0347
X0351
X0357Y0292
X0384Y026
X039Y0264
X0397Y0266
Y027
X0401Y0271
X03Y0264
X0296Y0267
X0293Y027
X0288Y0273
X0303Y0249
X0297Y0243
X0281Y0237
X035741Y0318
T02
X0273126Y0281
X0281
T03
X0233Y0259
X0248Y025
X025Y0271
X0283Y0274
X0277Y0259
X0275543Y0243457
X0291Y0241
T04
X02365Y03255
X0248311
X0254217Y0331405
X0242406
X0266028
X0271933Y03255
X0283744
X0277839Y0331405
X028965
X0295555Y03255
X0307366
X0301461Y0331405
X0260122Y03255
X0319177
X0313272Y0331405
X0325083
X0330988Y03255
X0342799
X0348705Y0331405
X0336894
X035461Y03255
X0366421
X0378232
X0372327Y0331405
X0360516
X0384138
X0390043Y03255
X0395949Y0331405
X040776
X0413665Y03255
X0401854
X0419571Y0331405
T05
X0421Y0243
Y0253
Y0263
Y0273
Y0283
Y0293
X0248295Y027676
Y0259437
M30
