%FSLAX24Y24*%
%MOIN*%
G70*
G01*
G75*
%ADD10R,0.0472X0.0551*%
%ADD11R,0.0551X0.0472*%
%ADD12O,0.0689X0.0217*%
%ADD13O,0.0217X0.0689*%
%ADD14R,0.0906X0.0197*%
%ADD15R,0.0984X0.0787*%
%ADD16R,0.0945X0.1339*%
%ADD17R,0.0945X0.0787*%
%ADD18C,0.0120*%
%ADD19C,0.0200*%
%ADD20C,0.0250*%
%ADD21C,0.0550*%
%ADD22C,0.0591*%
%ADD23R,0.0591X0.0591*%
%ADD24C,0.0472*%
%ADD25C,0.0240*%
%ADD26C,0.0500*%
%ADD27C,0.0100*%
%ADD28C,0.0236*%
%ADD29C,0.0098*%
%ADD30C,0.0079*%
D27*
X28706Y28100D02*
G03*
X28706Y28100I-1000J0D01*
G01*
X22500Y30300D02*
X42800D01*
X41600Y28800D02*
X42600D01*
X28450Y27450D02*
Y28750D01*
X37050Y29050D02*
X39500D01*
X22900Y31200D02*
Y30900D01*
X23050D01*
X23100Y30950D01*
Y31150D01*
X23050Y31200D01*
X22900D01*
X23400D02*
X23200D01*
Y31050D01*
X23300Y31100D01*
X23350D01*
X23400Y31050D01*
Y30950D01*
X23350Y30900D01*
X23250D01*
X23200Y30950D01*
X23500Y31150D02*
X23550Y31200D01*
X23650D01*
X23700Y31150D01*
Y30950D01*
X23650Y30900D01*
X23550D01*
X23500Y30950D01*
Y31150D01*
X23800D02*
X23850Y31200D01*
X23950D01*
X24000Y31150D01*
Y31100D01*
X23950Y31050D01*
X24000Y31000D01*
Y30950D01*
X23950Y30900D01*
X23850D01*
X23800Y30950D01*
Y31000D01*
X23850Y31050D01*
X23800Y31100D01*
Y31150D01*
X23850Y31050D02*
X23950D01*
X24300Y30900D02*
X24100D01*
X24300Y31100D01*
Y31150D01*
X24250Y31200D01*
X24150D01*
X24100Y31150D01*
X24400Y30900D02*
X24499D01*
X24450D01*
Y31200D01*
X24400Y31150D01*
X24649Y30850D02*
X24849D01*
X25149Y31200D02*
X24949D01*
Y31050D01*
X25049Y31100D01*
X25099D01*
X25149Y31050D01*
Y30950D01*
X25099Y30900D01*
X24999D01*
X24949Y30950D01*
X25249Y31100D02*
X25449Y30900D01*
X25349Y31000D01*
X25449Y31100D01*
X25249Y30900D01*
X25549D02*
X25649D01*
X25599D01*
Y31200D01*
X25549Y31150D01*
X25799D02*
X25849Y31200D01*
X25949D01*
X25999Y31150D01*
Y30950D01*
X25949Y30900D01*
X25849D01*
X25799Y30950D01*
Y31150D01*
D28*
X31799Y25681D02*
G03*
X31799Y25681I-118J0D01*
G01*
D29*
X31150Y24776D02*
G03*
X31150Y24776I-49J0D01*
G01*
D30*
X41600Y23800D02*
Y29800D01*
X42600Y23800D02*
Y29800D01*
X41600D02*
X42600D01*
X41600Y23800D02*
X42600D01*
X27200Y24764D02*
Y25236D01*
X28700Y24764D02*
Y25236D01*
X36800Y29364D02*
Y29836D01*
X25200Y23764D02*
Y24236D01*
X23700Y29364D02*
Y29836D01*
Y23764D02*
Y24236D01*
X26664Y26200D02*
X27136D01*
X25200Y29364D02*
Y29836D01*
X34713Y25287D02*
Y28713D01*
X31287Y25287D02*
Y28713D01*
X34713D01*
X31287Y25287D02*
X34713D01*
X40764Y28100D02*
X41236D01*
X36264D02*
X36736D01*
X39864D02*
X40336D01*
M02*
