%FSLAX24Y24*%
%MOIN*%
G70*
G01*
G75*
G04 Layer_Color=32896*
%ADD10R,0.0472X0.0551*%
%ADD11R,0.0551X0.0472*%
%ADD12O,0.0689X0.0217*%
%ADD13O,0.0217X0.0689*%
%ADD14R,0.0906X0.0197*%
%ADD15R,0.0984X0.0787*%
%ADD16R,0.0945X0.1339*%
%ADD17R,0.0945X0.0787*%
%ADD18C,0.0120*%
%ADD19C,0.0200*%
%ADD20C,0.0250*%
%ADD21C,0.0550*%
%ADD22C,0.0591*%
%ADD23R,0.0591X0.0591*%
%ADD24C,0.0472*%
%ADD25C,0.0240*%
%ADD26C,0.0500*%
%ADD27C,0.0100*%
%ADD28C,0.0236*%
%ADD29C,0.0098*%
%ADD30C,0.0079*%
%ADD31R,0.0552X0.0631*%
%ADD32R,0.0631X0.0552*%
%ADD33O,0.0769X0.0297*%
%ADD34O,0.0297X0.0769*%
%ADD35R,0.0986X0.0277*%
%ADD36R,0.1064X0.0867*%
%ADD37R,0.1025X0.1419*%
%ADD38R,0.1025X0.0867*%
%ADD39C,0.0630*%
%ADD40C,0.0671*%
%ADD41R,0.0671X0.0671*%
%ADD42C,0.0552*%
%ADD43C,0.0080*%
G36*
X26772Y34100D02*
X26633D01*
X26404Y34741D01*
X26541D01*
X26698Y34267D01*
X26860Y34741D01*
X27000D01*
X26772Y34100D01*
D02*
G37*
G36*
X23238Y34743D02*
X23253Y34742D01*
X23268Y34740D01*
X23281Y34737D01*
X23294Y34734D01*
X23306Y34730D01*
X23317Y34726D01*
X23326Y34722D01*
X23336Y34718D01*
X23344Y34714D01*
X23351Y34710D01*
X23356Y34706D01*
X23361Y34704D01*
X23364Y34701D01*
X23366Y34701D01*
X23366Y34700D01*
X23376Y34691D01*
X23386Y34681D01*
X23394Y34670D01*
X23401Y34658D01*
X23408Y34646D01*
X23413Y34634D01*
X23422Y34611D01*
X23426Y34599D01*
X23428Y34588D01*
X23431Y34579D01*
X23432Y34571D01*
X23433Y34564D01*
X23434Y34558D01*
X23435Y34555D01*
Y34554D01*
X23312Y34542D01*
X23310Y34561D01*
X23306Y34576D01*
X23302Y34590D01*
X23298Y34601D01*
X23294Y34609D01*
X23290Y34615D01*
X23287Y34618D01*
X23286Y34619D01*
X23277Y34626D01*
X23267Y34632D01*
X23257Y34636D01*
X23247Y34640D01*
X23239Y34641D01*
X23232Y34642D01*
X23226D01*
X23212Y34641D01*
X23200Y34639D01*
X23189Y34635D01*
X23181Y34631D01*
X23174Y34627D01*
X23169Y34623D01*
X23166Y34621D01*
X23165Y34620D01*
X23157Y34611D01*
X23152Y34601D01*
X23148Y34590D01*
X23145Y34580D01*
X23143Y34571D01*
X23142Y34563D01*
Y34558D01*
Y34557D01*
Y34556D01*
X23143Y34542D01*
X23147Y34529D01*
X23151Y34516D01*
X23155Y34505D01*
X23160Y34496D01*
X23164Y34488D01*
X23167Y34483D01*
X23168Y34482D01*
Y34482D01*
X23172Y34476D01*
X23178Y34469D01*
X23184Y34462D01*
X23192Y34453D01*
X23208Y34437D01*
X23226Y34419D01*
X23242Y34402D01*
X23250Y34396D01*
X23256Y34389D01*
X23262Y34384D01*
X23266Y34380D01*
X23269Y34377D01*
X23270Y34377D01*
X23288Y34359D01*
X23305Y34342D01*
X23321Y34327D01*
X23335Y34312D01*
X23347Y34298D01*
X23358Y34286D01*
X23368Y34274D01*
X23377Y34263D01*
X23385Y34254D01*
X23391Y34246D01*
X23396Y34239D01*
X23400Y34233D01*
X23403Y34228D01*
X23406Y34225D01*
X23406Y34223D01*
X23407Y34222D01*
X23419Y34201D01*
X23428Y34179D01*
X23436Y34158D01*
X23441Y34139D01*
X23443Y34131D01*
X23445Y34123D01*
X23446Y34117D01*
X23447Y34111D01*
X23448Y34107D01*
X23449Y34102D01*
Y34101D01*
Y34100D01*
X23019D01*
Y34214D01*
X23263D01*
X23256Y34226D01*
X23247Y34237D01*
X23244Y34241D01*
X23241Y34244D01*
X23239Y34247D01*
X23238Y34247D01*
X23235Y34251D01*
X23231Y34256D01*
X23220Y34266D01*
X23208Y34277D01*
X23196Y34289D01*
X23184Y34301D01*
X23174Y34310D01*
X23170Y34313D01*
X23167Y34316D01*
X23166Y34317D01*
X23165Y34318D01*
X23154Y34328D01*
X23145Y34337D01*
X23127Y34354D01*
X23114Y34368D01*
X23102Y34380D01*
X23094Y34389D01*
X23088Y34396D01*
X23085Y34399D01*
X23084Y34401D01*
X23072Y34417D01*
X23062Y34432D01*
X23054Y34445D01*
X23047Y34457D01*
X23042Y34467D01*
X23038Y34476D01*
X23036Y34481D01*
X23035Y34482D01*
Y34482D01*
X23030Y34497D01*
X23026Y34511D01*
X23023Y34526D01*
X23021Y34538D01*
X23020Y34549D01*
X23019Y34557D01*
Y34561D01*
Y34563D01*
Y34564D01*
Y34565D01*
X23020Y34579D01*
X23022Y34592D01*
X23024Y34605D01*
X23027Y34617D01*
X23037Y34639D01*
X23041Y34648D01*
X23046Y34657D01*
X23052Y34666D01*
X23056Y34672D01*
X23061Y34678D01*
X23065Y34683D01*
X23068Y34687D01*
X23071Y34690D01*
X23072Y34691D01*
X23073Y34692D01*
X23084Y34701D01*
X23095Y34709D01*
X23107Y34716D01*
X23119Y34722D01*
X23132Y34727D01*
X23144Y34731D01*
X23168Y34737D01*
X23179Y34740D01*
X23189Y34741D01*
X23199Y34742D01*
X23207Y34743D01*
X23213Y34744D01*
X23222D01*
X23238Y34743D01*
D02*
G37*
G36*
X26179Y34574D02*
X26196Y34572D01*
X26211Y34569D01*
X26225Y34565D01*
X26239Y34560D01*
X26252Y34554D01*
X26263Y34548D01*
X26274Y34542D01*
X26283Y34536D01*
X26291Y34530D01*
X26299Y34524D01*
X26304Y34519D01*
X26309Y34515D01*
X26313Y34511D01*
X26314Y34510D01*
X26315Y34509D01*
X26326Y34497D01*
X26335Y34482D01*
X26343Y34468D01*
X26350Y34453D01*
X26356Y34438D01*
X26360Y34423D01*
X26364Y34408D01*
X26368Y34394D01*
X26370Y34381D01*
X26372Y34368D01*
X26374Y34357D01*
X26374Y34347D01*
Y34339D01*
X26375Y34333D01*
Y34330D01*
Y34328D01*
X26374Y34311D01*
X26374Y34293D01*
X26371Y34277D01*
X26368Y34262D01*
X26364Y34248D01*
X26361Y34235D01*
X26357Y34223D01*
X26352Y34212D01*
X26348Y34202D01*
X26344Y34193D01*
X26340Y34186D01*
X26337Y34180D01*
X26334Y34175D01*
X26331Y34172D01*
X26330Y34169D01*
X26329Y34168D01*
X26318Y34154D01*
X26305Y34142D01*
X26292Y34132D01*
X26277Y34122D01*
X26263Y34115D01*
X26248Y34108D01*
X26233Y34103D01*
X26219Y34099D01*
X26205Y34096D01*
X26192Y34093D01*
X26181Y34092D01*
X26171Y34091D01*
X26163Y34090D01*
X26156Y34089D01*
X26151D01*
X26124Y34091D01*
X26099Y34095D01*
X26077Y34100D01*
X26068Y34103D01*
X26059Y34107D01*
X26050Y34110D01*
X26044Y34113D01*
X26038Y34116D01*
X26033Y34118D01*
X26029Y34121D01*
X26026Y34122D01*
X26025Y34124D01*
X26024D01*
X26006Y34138D01*
X25990Y34155D01*
X25978Y34172D01*
X25967Y34188D01*
X25959Y34203D01*
X25956Y34210D01*
X25953Y34216D01*
X25951Y34220D01*
X25950Y34223D01*
X25949Y34226D01*
Y34227D01*
X26071Y34247D01*
X26075Y34235D01*
X26080Y34224D01*
X26085Y34216D01*
X26090Y34208D01*
X26095Y34202D01*
X26099Y34199D01*
X26101Y34197D01*
X26102Y34196D01*
X26110Y34191D01*
X26118Y34187D01*
X26125Y34184D01*
X26133Y34182D01*
X26140Y34182D01*
X26145Y34181D01*
X26150D01*
X26165Y34182D01*
X26179Y34186D01*
X26190Y34190D01*
X26201Y34196D01*
X26209Y34202D01*
X26215Y34206D01*
X26219Y34209D01*
X26220Y34211D01*
X26229Y34223D01*
X26237Y34237D01*
X26242Y34252D01*
X26245Y34265D01*
X26248Y34277D01*
X26249Y34287D01*
X26249Y34292D01*
Y34294D01*
Y34296D01*
Y34297D01*
X25942D01*
Y34322D01*
X25944Y34346D01*
X25946Y34368D01*
X25950Y34389D01*
X25955Y34407D01*
X25959Y34425D01*
X25965Y34440D01*
X25970Y34454D01*
X25975Y34467D01*
X25980Y34477D01*
X25985Y34486D01*
X25990Y34493D01*
X25994Y34498D01*
X25997Y34502D01*
X25999Y34505D01*
X26000Y34506D01*
X26011Y34518D01*
X26024Y34528D01*
X26037Y34538D01*
X26050Y34546D01*
X26064Y34552D01*
X26078Y34558D01*
X26091Y34562D01*
X26104Y34566D01*
X26116Y34569D01*
X26127Y34571D01*
X26137Y34572D01*
X26145Y34574D01*
X26153D01*
X26158Y34575D01*
X26163D01*
X26179Y34574D01*
D02*
G37*
G36*
X24997Y34100D02*
X24874D01*
Y34564D01*
X24997D01*
Y34100D01*
D02*
G37*
G36*
X25639Y34574D02*
X25649Y34572D01*
X25657Y34570D01*
X25666Y34567D01*
X25671Y34564D01*
X25676Y34561D01*
X25680Y34560D01*
X25681Y34559D01*
X25690Y34552D01*
X25699Y34543D01*
X25707Y34533D01*
X25716Y34522D01*
X25722Y34513D01*
X25728Y34505D01*
X25731Y34502D01*
X25731Y34499D01*
X25733Y34498D01*
Y34564D01*
X25847D01*
Y34100D01*
X25725D01*
Y34243D01*
Y34265D01*
X25724Y34284D01*
Y34302D01*
X25723Y34317D01*
X25722Y34332D01*
X25721Y34344D01*
X25721Y34356D01*
X25720Y34365D01*
X25719Y34373D01*
X25718Y34381D01*
X25717Y34386D01*
X25716Y34391D01*
X25716Y34394D01*
X25715Y34397D01*
Y34398D01*
X25711Y34412D01*
X25706Y34422D01*
X25701Y34431D01*
X25697Y34438D01*
X25693Y34443D01*
X25690Y34447D01*
X25688Y34449D01*
X25687Y34450D01*
X25680Y34455D01*
X25672Y34458D01*
X25665Y34462D01*
X25658Y34463D01*
X25651Y34464D01*
X25646Y34465D01*
X25642D01*
X25632Y34464D01*
X25622Y34462D01*
X25612Y34458D01*
X25603Y34455D01*
X25596Y34451D01*
X25590Y34447D01*
X25586Y34445D01*
X25585Y34444D01*
X25546Y34551D01*
X25561Y34559D01*
X25576Y34565D01*
X25590Y34569D01*
X25602Y34572D01*
X25612Y34574D01*
X25621Y34575D01*
X25628D01*
X25639Y34574D01*
D02*
G37*
G36*
X33928Y36348D02*
X33962Y36345D01*
X33992Y36338D01*
X34020Y36330D01*
X34048Y36320D01*
X34073Y36308D01*
X34095Y36296D01*
X34117Y36285D01*
X34135Y36271D01*
X34152Y36260D01*
X34167Y36248D01*
X34178Y36238D01*
X34188Y36230D01*
X34195Y36223D01*
X34198Y36220D01*
X34200Y36218D01*
X34222Y36193D01*
X34240Y36165D01*
X34255Y36136D01*
X34270Y36106D01*
X34282Y36076D01*
X34290Y36046D01*
X34298Y36016D01*
X34305Y35988D01*
X34310Y35961D01*
X34313Y35936D01*
X34317Y35913D01*
X34318Y35895D01*
Y35878D01*
X34320Y35866D01*
Y35860D01*
Y35856D01*
X34318Y35821D01*
X34317Y35787D01*
X34312Y35755D01*
X34305Y35725D01*
X34298Y35697D01*
X34292Y35670D01*
X34283Y35647D01*
X34273Y35625D01*
X34265Y35605D01*
X34257Y35587D01*
X34250Y35572D01*
X34243Y35560D01*
X34237Y35550D01*
X34232Y35543D01*
X34230Y35538D01*
X34228Y35537D01*
X34205Y35508D01*
X34180Y35485D01*
X34153Y35463D01*
X34123Y35445D01*
X34095Y35430D01*
X34065Y35417D01*
X34035Y35407D01*
X34007Y35398D01*
X33980Y35392D01*
X33953Y35387D01*
X33932Y35383D01*
X33912Y35382D01*
X33895Y35380D01*
X33882Y35378D01*
X33872D01*
X33817Y35382D01*
X33767Y35390D01*
X33724Y35400D01*
X33705Y35407D01*
X33687Y35413D01*
X33670Y35420D01*
X33657Y35427D01*
X33645Y35432D01*
X33635Y35437D01*
X33627Y35442D01*
X33622Y35445D01*
X33619Y35448D01*
X33617D01*
X33582Y35477D01*
X33550Y35510D01*
X33525Y35543D01*
X33504Y35577D01*
X33487Y35607D01*
X33482Y35620D01*
X33475Y35632D01*
X33472Y35640D01*
X33469Y35647D01*
X33467Y35652D01*
Y35653D01*
X33712Y35695D01*
X33720Y35670D01*
X33730Y35648D01*
X33740Y35632D01*
X33750Y35617D01*
X33760Y35605D01*
X33767Y35598D01*
X33772Y35593D01*
X33773Y35592D01*
X33788Y35582D01*
X33805Y35575D01*
X33820Y35568D01*
X33835Y35565D01*
X33848Y35563D01*
X33858Y35562D01*
X33868D01*
X33898Y35565D01*
X33927Y35572D01*
X33950Y35580D01*
X33972Y35592D01*
X33988Y35603D01*
X34000Y35612D01*
X34007Y35618D01*
X34010Y35622D01*
X34028Y35647D01*
X34043Y35675D01*
X34053Y35703D01*
X34060Y35730D01*
X34065Y35755D01*
X34067Y35775D01*
X34068Y35783D01*
Y35788D01*
Y35792D01*
Y35793D01*
X33454D01*
Y35845D01*
X33457Y35891D01*
X33462Y35936D01*
X33469Y35978D01*
X33479Y36015D01*
X33487Y36050D01*
X33499Y36080D01*
X33509Y36108D01*
X33520Y36133D01*
X33530Y36153D01*
X33540Y36171D01*
X33550Y36186D01*
X33557Y36196D01*
X33564Y36205D01*
X33567Y36210D01*
X33569Y36211D01*
X33592Y36236D01*
X33617Y36256D01*
X33644Y36276D01*
X33670Y36291D01*
X33697Y36305D01*
X33725Y36316D01*
X33752Y36325D01*
X33777Y36333D01*
X33802Y36338D01*
X33823Y36343D01*
X33843Y36345D01*
X33860Y36348D01*
X33875D01*
X33885Y36350D01*
X33895D01*
X33928Y36348D01*
D02*
G37*
G36*
X24187D02*
X24221Y36345D01*
X24251Y36338D01*
X24279Y36330D01*
X24307Y36320D01*
X24332Y36308D01*
X24354Y36296D01*
X24376Y36285D01*
X24394Y36271D01*
X24411Y36260D01*
X24426Y36248D01*
X24437Y36238D01*
X24447Y36230D01*
X24454Y36223D01*
X24457Y36220D01*
X24459Y36218D01*
X24481Y36193D01*
X24499Y36165D01*
X24514Y36136D01*
X24529Y36106D01*
X24541Y36076D01*
X24549Y36046D01*
X24557Y36016D01*
X24564Y35988D01*
X24569Y35961D01*
X24572Y35936D01*
X24576Y35913D01*
X24577Y35895D01*
Y35878D01*
X24579Y35866D01*
Y35860D01*
Y35856D01*
X24577Y35821D01*
X24576Y35787D01*
X24571Y35755D01*
X24564Y35725D01*
X24557Y35697D01*
X24551Y35670D01*
X24542Y35647D01*
X24532Y35625D01*
X24524Y35605D01*
X24516Y35587D01*
X24509Y35572D01*
X24502Y35560D01*
X24496Y35550D01*
X24491Y35543D01*
X24489Y35538D01*
X24487Y35537D01*
X24464Y35508D01*
X24439Y35485D01*
X24412Y35463D01*
X24382Y35445D01*
X24354Y35430D01*
X24324Y35417D01*
X24294Y35407D01*
X24266Y35398D01*
X24239Y35392D01*
X24212Y35387D01*
X24191Y35383D01*
X24171Y35382D01*
X24154Y35380D01*
X24141Y35378D01*
X24131D01*
X24076Y35382D01*
X24026Y35390D01*
X23982Y35400D01*
X23964Y35407D01*
X23946Y35413D01*
X23929Y35420D01*
X23916Y35427D01*
X23904Y35432D01*
X23894Y35437D01*
X23886Y35442D01*
X23881Y35445D01*
X23877Y35448D01*
X23876D01*
X23841Y35477D01*
X23809Y35510D01*
X23784Y35543D01*
X23763Y35577D01*
X23746Y35607D01*
X23741Y35620D01*
X23734Y35632D01*
X23731Y35640D01*
X23728Y35647D01*
X23726Y35652D01*
Y35653D01*
X23971Y35695D01*
X23979Y35670D01*
X23989Y35648D01*
X23999Y35632D01*
X24009Y35617D01*
X24019Y35605D01*
X24026Y35598D01*
X24031Y35593D01*
X24032Y35592D01*
X24047Y35582D01*
X24064Y35575D01*
X24079Y35568D01*
X24094Y35565D01*
X24107Y35563D01*
X24117Y35562D01*
X24127D01*
X24157Y35565D01*
X24186Y35572D01*
X24209Y35580D01*
X24231Y35592D01*
X24247Y35603D01*
X24259Y35612D01*
X24266Y35618D01*
X24269Y35622D01*
X24287Y35647D01*
X24302Y35675D01*
X24312Y35703D01*
X24319Y35730D01*
X24324Y35755D01*
X24326Y35775D01*
X24327Y35783D01*
Y35788D01*
Y35792D01*
Y35793D01*
X23713D01*
Y35845D01*
X23716Y35891D01*
X23721Y35936D01*
X23728Y35978D01*
X23738Y36015D01*
X23746Y36050D01*
X23758Y36080D01*
X23767Y36108D01*
X23779Y36133D01*
X23789Y36153D01*
X23799Y36171D01*
X23809Y36186D01*
X23816Y36196D01*
X23822Y36205D01*
X23826Y36210D01*
X23827Y36211D01*
X23851Y36236D01*
X23876Y36256D01*
X23902Y36276D01*
X23929Y36291D01*
X23956Y36305D01*
X23984Y36316D01*
X24011Y36325D01*
X24036Y36333D01*
X24061Y36338D01*
X24082Y36343D01*
X24102Y36345D01*
X24119Y36348D01*
X24134D01*
X24144Y36350D01*
X24154D01*
X24187Y36348D01*
D02*
G37*
G36*
X28287Y35740D02*
X28286Y35693D01*
X28282Y35652D01*
X28277Y35617D01*
X28271Y35587D01*
X28266Y35563D01*
X28261Y35547D01*
X28259Y35542D01*
X28257Y35537D01*
X28256Y35535D01*
Y35533D01*
X28241Y35507D01*
X28226Y35485D01*
X28207Y35465D01*
X28189Y35448D01*
X28174Y35435D01*
X28161Y35427D01*
X28152Y35420D01*
X28149Y35418D01*
X28121Y35405D01*
X28091Y35395D01*
X28062Y35388D01*
X28037Y35383D01*
X28014Y35380D01*
X27996Y35378D01*
X27981D01*
X27947Y35380D01*
X27916Y35385D01*
X27886Y35392D01*
X27859Y35400D01*
X27838Y35407D01*
X27821Y35413D01*
X27816Y35417D01*
X27811Y35418D01*
X27809Y35420D01*
X27808D01*
X27778Y35438D01*
X27753Y35457D01*
X27729Y35477D01*
X27711Y35495D01*
X27694Y35512D01*
X27684Y35527D01*
X27676Y35535D01*
X27674Y35538D01*
Y35400D01*
X27446D01*
Y36328D01*
X27691D01*
Y35936D01*
Y35901D01*
Y35868D01*
X27693Y35840D01*
X27694Y35813D01*
X27696Y35790D01*
Y35770D01*
X27698Y35752D01*
X27699Y35737D01*
X27701Y35723D01*
X27703Y35712D01*
X27704Y35703D01*
X27706Y35697D01*
X27708Y35692D01*
Y35688D01*
X27709Y35685D01*
X27718Y35667D01*
X27728Y35650D01*
X27739Y35637D01*
X27751Y35623D01*
X27761Y35613D01*
X27769Y35607D01*
X27776Y35602D01*
X27778Y35600D01*
X27798Y35588D01*
X27816Y35580D01*
X27836Y35575D01*
X27853Y35572D01*
X27868Y35568D01*
X27881Y35567D01*
X27891D01*
X27909Y35568D01*
X27927Y35570D01*
X27942Y35575D01*
X27956Y35580D01*
X27966Y35583D01*
X27974Y35588D01*
X27979Y35590D01*
X27981Y35592D01*
X27992Y35602D01*
X28002Y35613D01*
X28011Y35625D01*
X28017Y35635D01*
X28022Y35645D01*
X28026Y35653D01*
X28029Y35658D01*
Y35660D01*
X28031Y35670D01*
X28034Y35683D01*
X28036Y35698D01*
X28037Y35717D01*
X28039Y35757D01*
X28041Y35798D01*
X28042Y35836D01*
Y35855D01*
Y35870D01*
Y35883D01*
Y35893D01*
Y35900D01*
Y35901D01*
Y36328D01*
X28287D01*
Y35740D01*
D02*
G37*
G36*
X24997Y34627D02*
X24874D01*
Y34741D01*
X24997D01*
Y34627D01*
D02*
G37*
G36*
X42700Y29995D02*
X41519D01*
Y30525D01*
X42700D01*
Y29995D01*
D02*
G37*
G36*
X36536Y36346D02*
X36566Y36343D01*
X36592Y36340D01*
X36616Y36335D01*
X36639Y36328D01*
X36659Y36323D01*
X36677Y36316D01*
X36692Y36310D01*
X36707Y36305D01*
X36719Y36298D01*
X36729Y36293D01*
X36736Y36290D01*
X36741Y36286D01*
X36744Y36283D01*
X36746D01*
X36777Y36256D01*
X36804Y36225D01*
X36827Y36191D01*
X36844Y36158D01*
X36857Y36130D01*
X36862Y36116D01*
X36867Y36105D01*
X36871Y36096D01*
X36872Y36090D01*
X36874Y36085D01*
Y36083D01*
X36652Y36043D01*
X36644Y36066D01*
X36634Y36085D01*
X36624Y36101D01*
X36616Y36113D01*
X36607Y36123D01*
X36601Y36130D01*
X36596Y36133D01*
X36594Y36135D01*
X36579Y36143D01*
X36562Y36150D01*
X36546Y36155D01*
X36529Y36158D01*
X36514Y36160D01*
X36502Y36161D01*
X36491D01*
X36457Y36160D01*
X36429Y36156D01*
X36406Y36151D01*
X36389Y36146D01*
X36376Y36140D01*
X36366Y36135D01*
X36361Y36131D01*
X36359Y36130D01*
X36347Y36116D01*
X36337Y36101D01*
X36331Y36085D01*
X36327Y36066D01*
X36324Y36051D01*
X36322Y36038D01*
Y36030D01*
Y36028D01*
Y36026D01*
Y36003D01*
X36336Y35998D01*
X36352Y35993D01*
X36369Y35986D01*
X36387Y35981D01*
X36427Y35971D01*
X36467Y35961D01*
X36504Y35953D01*
X36521Y35950D01*
X36534Y35946D01*
X36546Y35945D01*
X36554Y35943D01*
X36561Y35941D01*
X36562D01*
X36607Y35933D01*
X36646Y35923D01*
X36679Y35913D01*
X36707Y35905D01*
X36729Y35896D01*
X36744Y35890D01*
X36754Y35886D01*
X36757Y35885D01*
X36781Y35871D01*
X36802Y35856D01*
X36819Y35841D01*
X36834Y35826D01*
X36847Y35813D01*
X36856Y35802D01*
X36861Y35795D01*
X36862Y35792D01*
X36874Y35768D01*
X36884Y35743D01*
X36891Y35720D01*
X36894Y35698D01*
X36897Y35680D01*
X36899Y35665D01*
Y35655D01*
Y35653D01*
Y35652D01*
X36897Y35630D01*
X36896Y35610D01*
X36886Y35572D01*
X36872Y35537D01*
X36857Y35508D01*
X36842Y35487D01*
X36831Y35468D01*
X36824Y35463D01*
X36821Y35458D01*
X36819Y35457D01*
X36817Y35455D01*
X36801Y35442D01*
X36784Y35430D01*
X36747Y35410D01*
X36709Y35397D01*
X36672Y35388D01*
X36641Y35382D01*
X36626Y35380D01*
X36614D01*
X36604Y35378D01*
X36591D01*
X36561Y35380D01*
X36532Y35383D01*
X36507Y35388D01*
X36484Y35393D01*
X36466Y35398D01*
X36451Y35403D01*
X36442Y35407D01*
X36439Y35408D01*
X36412Y35422D01*
X36387Y35435D01*
X36364Y35450D01*
X36344Y35465D01*
X36327Y35478D01*
X36316Y35490D01*
X36307Y35497D01*
X36304Y35500D01*
X36301Y35493D01*
X36299Y35483D01*
X36296Y35475D01*
Y35473D01*
Y35472D01*
X36291Y35455D01*
X36286Y35440D01*
X36281Y35428D01*
X36277Y35418D01*
X36274Y35410D01*
X36272Y35405D01*
X36271Y35402D01*
Y35400D01*
X36028D01*
X36039Y35423D01*
X36049Y35447D01*
X36056Y35468D01*
X36063Y35487D01*
X36068Y35502D01*
X36071Y35513D01*
X36073Y35520D01*
Y35523D01*
X36076Y35548D01*
X36079Y35577D01*
X36081Y35607D01*
X36083Y35637D01*
X36084Y35663D01*
Y35675D01*
Y35685D01*
Y35693D01*
Y35700D01*
Y35703D01*
Y35705D01*
X36081Y35991D01*
Y36020D01*
X36083Y36046D01*
X36084Y36071D01*
X36086Y36093D01*
X36089Y36113D01*
X36091Y36131D01*
X36094Y36148D01*
X36098Y36161D01*
X36101Y36173D01*
X36104Y36185D01*
X36106Y36193D01*
X36109Y36200D01*
X36113Y36208D01*
X36114Y36211D01*
X36129Y36233D01*
X36146Y36251D01*
X36164Y36270D01*
X36183Y36283D01*
X36201Y36295D01*
X36214Y36303D01*
X36224Y36308D01*
X36226Y36310D01*
X36228D01*
X36244Y36316D01*
X36261Y36323D01*
X36299Y36333D01*
X36341Y36340D01*
X36379Y36345D01*
X36399Y36346D01*
X36416Y36348D01*
X36432D01*
X36446Y36350D01*
X36506D01*
X36536Y36346D01*
D02*
G37*
G36*
X26726Y36348D02*
X26756Y36343D01*
X26785Y36336D01*
X26811Y36326D01*
X26836Y36315D01*
X26860Y36303D01*
X26881Y36288D01*
X26901Y36275D01*
X26920Y36261D01*
X26936Y36248D01*
X26950Y36235D01*
X26961Y36223D01*
X26971Y36213D01*
X26978Y36206D01*
X26981Y36201D01*
X26983Y36200D01*
Y36328D01*
X27209D01*
Y35400D01*
X26965D01*
Y35850D01*
Y35875D01*
X26963Y35896D01*
Y35918D01*
X26961Y35936D01*
X26960Y35955D01*
X26958Y35970D01*
X26955Y35996D01*
X26951Y36016D01*
X26950Y36030D01*
X26946Y36038D01*
Y36041D01*
X26938Y36061D01*
X26928Y36080D01*
X26916Y36095D01*
X26906Y36108D01*
X26896Y36116D01*
X26888Y36125D01*
X26883Y36128D01*
X26881Y36130D01*
X26863Y36140D01*
X26845Y36148D01*
X26828Y36153D01*
X26811Y36158D01*
X26798Y36160D01*
X26788Y36161D01*
X26761D01*
X26746Y36158D01*
X26735Y36155D01*
X26723Y36151D01*
X26716Y36148D01*
X26710Y36145D01*
X26706Y36143D01*
X26705Y36141D01*
X26695Y36133D01*
X26686Y36123D01*
X26673Y36105D01*
X26668Y36095D01*
X26665Y36088D01*
X26663Y36083D01*
Y36081D01*
X26661Y36073D01*
X26658Y36063D01*
X26655Y36038D01*
X26653Y36010D01*
X26651Y35980D01*
X26650Y35953D01*
Y35941D01*
Y35930D01*
Y35921D01*
Y35915D01*
Y35910D01*
Y35908D01*
Y35400D01*
X26405D01*
Y35845D01*
Y35868D01*
X26403Y35891D01*
X26401Y35930D01*
X26398Y35963D01*
X26395Y35990D01*
X26391Y36010D01*
X26388Y36025D01*
X26385Y36033D01*
Y36036D01*
X26376Y36058D01*
X26366Y36076D01*
X26355Y36093D01*
X26345Y36106D01*
X26335Y36116D01*
X26326Y36123D01*
X26321Y36128D01*
X26320Y36130D01*
X26303Y36140D01*
X26286Y36148D01*
X26270Y36153D01*
X26255Y36158D01*
X26242Y36160D01*
X26232Y36161D01*
X26223D01*
X26198Y36160D01*
X26177Y36153D01*
X26158Y36145D01*
X26143Y36135D01*
X26133Y36125D01*
X26125Y36116D01*
X26120Y36110D01*
X26118Y36108D01*
X26113Y36100D01*
X26110Y36090D01*
X26103Y36063D01*
X26098Y36035D01*
X26095Y36005D01*
X26093Y35976D01*
X26092Y35963D01*
Y35951D01*
Y35943D01*
Y35936D01*
Y35931D01*
Y35930D01*
Y35400D01*
X25847D01*
Y35993D01*
Y36018D01*
X25848Y36040D01*
Y36060D01*
X25850Y36080D01*
X25855Y36113D01*
X25860Y36140D01*
X25865Y36160D01*
X25868Y36173D01*
X25872Y36181D01*
X25873Y36185D01*
X25888Y36213D01*
X25905Y36238D01*
X25922Y36260D01*
X25940Y36276D01*
X25955Y36291D01*
X25968Y36300D01*
X25977Y36306D01*
X25978Y36308D01*
X25980D01*
X26007Y36321D01*
X26037Y36331D01*
X26065Y36340D01*
X26092Y36345D01*
X26115Y36348D01*
X26135Y36350D01*
X26152D01*
X26182Y36348D01*
X26208Y36343D01*
X26235Y36338D01*
X26256Y36331D01*
X26276Y36323D01*
X26290Y36318D01*
X26300Y36313D01*
X26301Y36311D01*
X26303D01*
X26328Y36296D01*
X26353Y36278D01*
X26375Y36260D01*
X26395Y36243D01*
X26411Y36226D01*
X26425Y36213D01*
X26431Y36205D01*
X26435Y36203D01*
Y36201D01*
X26451Y36228D01*
X26470Y36250D01*
X26486Y36268D01*
X26503Y36285D01*
X26518Y36296D01*
X26530Y36305D01*
X26538Y36310D01*
X26541Y36311D01*
X26566Y36325D01*
X26593Y36333D01*
X26620Y36340D01*
X26643Y36345D01*
X26665Y36348D01*
X26681Y36350D01*
X26696D01*
X26726Y36348D01*
D02*
G37*
G36*
X37699Y36701D02*
X37730Y36698D01*
X37759Y36694D01*
X37785Y36689D01*
X37812Y36684D01*
X37834Y36678D01*
X37855Y36673D01*
X37875Y36666D01*
X37892Y36660D01*
X37905Y36655D01*
X37919Y36649D01*
X37927Y36646D01*
X37935Y36643D01*
X37938Y36639D01*
X37940D01*
X37970Y36623D01*
X37997Y36605D01*
X38023Y36586D01*
X38047Y36566D01*
X38068Y36546D01*
X38088Y36526D01*
X38107Y36508D01*
X38123Y36488D01*
X38138Y36470D01*
X38150Y36453D01*
X38160Y36438D01*
X38170Y36426D01*
X38177Y36415D01*
X38182Y36406D01*
X38183Y36401D01*
X38185Y36400D01*
X38200Y36370D01*
X38212Y36340D01*
X38223Y36310D01*
X38233Y36280D01*
X38248Y36220D01*
X38253Y36191D01*
X38258Y36165D01*
X38262Y36140D01*
X38263Y36116D01*
X38265Y36096D01*
X38267Y36078D01*
X38268Y36065D01*
Y36053D01*
Y36046D01*
Y36045D01*
X38267Y36010D01*
X38265Y35976D01*
X38257Y35913D01*
X38252Y35883D01*
X38245Y35855D01*
X38238Y35828D01*
X38230Y35803D01*
X38223Y35782D01*
X38217Y35762D01*
X38210Y35743D01*
X38205Y35730D01*
X38200Y35718D01*
X38197Y35708D01*
X38193Y35703D01*
Y35702D01*
X38178Y35673D01*
X38162Y35647D01*
X38145Y35622D01*
X38127Y35598D01*
X38108Y35577D01*
X38090Y35557D01*
X38072Y35538D01*
X38053Y35522D01*
X38037Y35508D01*
X38022Y35495D01*
X38007Y35485D01*
X37995Y35475D01*
X37983Y35468D01*
X37977Y35463D01*
X37972Y35462D01*
X37970Y35460D01*
X37942Y35445D01*
X37912Y35433D01*
X37882Y35422D01*
X37852Y35412D01*
X37794Y35397D01*
X37765Y35392D01*
X37739Y35387D01*
X37714Y35383D01*
X37690Y35382D01*
X37670Y35380D01*
X37652Y35378D01*
X37639Y35377D01*
X37619D01*
X37560Y35380D01*
X37504Y35387D01*
X37450Y35395D01*
X37425Y35402D01*
X37404Y35407D01*
X37382Y35412D01*
X37364Y35418D01*
X37347Y35423D01*
X37334Y35427D01*
X37322Y35432D01*
X37314Y35433D01*
X37309Y35437D01*
X37307D01*
X37279Y35448D01*
X37252Y35460D01*
X37227Y35472D01*
X37205Y35483D01*
X37184Y35495D01*
X37164Y35507D01*
X37147Y35518D01*
X37130Y35528D01*
X37117Y35538D01*
X37104Y35547D01*
X37094Y35555D01*
X37085Y35562D01*
X37079Y35567D01*
X37074Y35572D01*
X37072Y35573D01*
X37071Y35575D01*
Y36086D01*
X37629D01*
Y35870D01*
X37332D01*
Y35707D01*
X37355Y35690D01*
X37379Y35675D01*
X37404Y35663D01*
X37425Y35652D01*
X37445Y35642D01*
X37460Y35635D01*
X37470Y35632D01*
X37472Y35630D01*
X37474D01*
X37504Y35620D01*
X37534Y35612D01*
X37560Y35607D01*
X37585Y35602D01*
X37605Y35600D01*
X37622Y35598D01*
X37635D01*
X37665Y35600D01*
X37694Y35603D01*
X37720Y35608D01*
X37747Y35617D01*
X37770Y35625D01*
X37792Y35635D01*
X37812Y35645D01*
X37830Y35655D01*
X37847Y35665D01*
X37860Y35677D01*
X37874Y35685D01*
X37884Y35693D01*
X37892Y35702D01*
X37897Y35707D01*
X37900Y35710D01*
X37902Y35712D01*
X37920Y35735D01*
X37935Y35760D01*
X37948Y35787D01*
X37960Y35813D01*
X37968Y35841D01*
X37977Y35871D01*
X37988Y35926D01*
X37993Y35953D01*
X37997Y35976D01*
X37998Y35998D01*
X38000Y36018D01*
X38002Y36033D01*
Y36045D01*
Y36051D01*
Y36055D01*
X38000Y36093D01*
X37997Y36130D01*
X37992Y36163D01*
X37987Y36195D01*
X37978Y36223D01*
X37970Y36250D01*
X37962Y36273D01*
X37952Y36295D01*
X37942Y36313D01*
X37933Y36330D01*
X37925Y36343D01*
X37917Y36355D01*
X37912Y36363D01*
X37907Y36370D01*
X37904Y36373D01*
X37902Y36375D01*
X37882Y36393D01*
X37862Y36410D01*
X37840Y36425D01*
X37817Y36438D01*
X37795Y36448D01*
X37774Y36456D01*
X37730Y36470D01*
X37710Y36475D01*
X37692Y36478D01*
X37675Y36480D01*
X37662Y36481D01*
X37650Y36483D01*
X37634D01*
X37594Y36481D01*
X37557Y36475D01*
X37525Y36466D01*
X37497Y36456D01*
X37475Y36445D01*
X37460Y36436D01*
X37450Y36430D01*
X37447Y36428D01*
X37420Y36406D01*
X37399Y36381D01*
X37382Y36356D01*
X37367Y36333D01*
X37357Y36311D01*
X37349Y36295D01*
X37347Y36288D01*
X37345Y36285D01*
X37344Y36281D01*
Y36280D01*
X37087Y36328D01*
X37095Y36360D01*
X37105Y36390D01*
X37119Y36418D01*
X37130Y36445D01*
X37145Y36470D01*
X37160Y36491D01*
X37175Y36513D01*
X37189Y36531D01*
X37204Y36548D01*
X37217Y36563D01*
X37229Y36575D01*
X37240Y36585D01*
X37249Y36593D01*
X37255Y36598D01*
X37260Y36601D01*
X37262Y36603D01*
X37289Y36621D01*
X37317Y36636D01*
X37345Y36649D01*
X37377Y36661D01*
X37407Y36671D01*
X37439Y36679D01*
X37497Y36691D01*
X37525Y36696D01*
X37552Y36699D01*
X37574Y36701D01*
X37594Y36703D01*
X37610Y36704D01*
X37634D01*
X37699Y36701D01*
D02*
G37*
G36*
X30833Y35397D02*
X30841Y35368D01*
X30851Y35343D01*
X30863Y35322D01*
X30873Y35303D01*
X30881Y35288D01*
X30890Y35277D01*
X30895Y35270D01*
X30896Y35268D01*
X30913Y35252D01*
X30933Y35238D01*
X30955Y35230D01*
X30975Y35223D01*
X30995Y35220D01*
X31010Y35218D01*
X31020Y35217D01*
X31023D01*
X31058Y35218D01*
X31076Y35220D01*
X31091Y35223D01*
X31106Y35225D01*
X31116Y35227D01*
X31123Y35228D01*
X31126D01*
X31105Y35037D01*
X31055Y35028D01*
X31031Y35025D01*
X31010Y35023D01*
X30993D01*
X30978Y35022D01*
X30941D01*
X30918Y35023D01*
X30896Y35027D01*
X30878Y35030D01*
X30863Y35032D01*
X30851Y35035D01*
X30843Y35037D01*
X30841D01*
X30821Y35043D01*
X30803Y35050D01*
X30786Y35057D01*
X30773Y35063D01*
X30763Y35068D01*
X30755Y35073D01*
X30750Y35077D01*
X30748Y35078D01*
X30721Y35100D01*
X30710Y35112D01*
X30700Y35123D01*
X30691Y35133D01*
X30685Y35142D01*
X30681Y35147D01*
X30680Y35148D01*
X30668Y35167D01*
X30658Y35187D01*
X30646Y35207D01*
X30638Y35227D01*
X30630Y35243D01*
X30623Y35258D01*
X30620Y35268D01*
X30618Y35270D01*
Y35272D01*
X30558Y35433D01*
X30230Y36328D01*
X30485D01*
X30703Y35668D01*
X30925Y36328D01*
X31186D01*
X30833Y35397D01*
D02*
G37*
G36*
X42500Y35996D02*
Y35958D01*
X42498Y35921D01*
Y35886D01*
X42497Y35855D01*
X42493Y35825D01*
X42492Y35798D01*
X42490Y35775D01*
X42487Y35753D01*
X42485Y35733D01*
X42483Y35717D01*
X42480Y35703D01*
X42478Y35692D01*
X42477Y35682D01*
Y35675D01*
X42475Y35672D01*
Y35670D01*
X42467Y35643D01*
X42457Y35617D01*
X42445Y35593D01*
X42433Y35572D01*
X42422Y35553D01*
X42412Y35540D01*
X42405Y35532D01*
X42403Y35528D01*
X42382Y35503D01*
X42357Y35482D01*
X42332Y35463D01*
X42308Y35448D01*
X42287Y35435D01*
X42268Y35427D01*
X42262Y35423D01*
X42257Y35420D01*
X42255Y35418D01*
X42253D01*
X42235Y35412D01*
X42213Y35405D01*
X42170Y35395D01*
X42123Y35387D01*
X42078Y35382D01*
X42057Y35380D01*
X42037Y35378D01*
X42019D01*
X42004Y35377D01*
X41974D01*
X41919Y35378D01*
X41870Y35383D01*
X41829Y35388D01*
X41810Y35392D01*
X41794Y35397D01*
X41779Y35400D01*
X41765Y35403D01*
X41754Y35407D01*
X41744Y35408D01*
X41737Y35412D01*
X41732Y35413D01*
X41729Y35415D01*
X41727D01*
X41694Y35430D01*
X41664Y35447D01*
X41637Y35465D01*
X41617Y35482D01*
X41599Y35495D01*
X41587Y35508D01*
X41579Y35515D01*
X41577Y35518D01*
X41557Y35545D01*
X41540Y35572D01*
X41527Y35598D01*
X41517Y35625D01*
X41509Y35647D01*
X41504Y35665D01*
X41500Y35672D01*
Y35677D01*
X41499Y35678D01*
Y35680D01*
X41495Y35700D01*
X41492Y35722D01*
X41489Y35747D01*
X41485Y35772D01*
X41482Y35826D01*
X41480Y35880D01*
X41479Y35905D01*
Y35928D01*
X41477Y35950D01*
Y35970D01*
Y35985D01*
Y35996D01*
Y36003D01*
Y36006D01*
Y36681D01*
X41735D01*
Y35971D01*
Y35943D01*
Y35918D01*
X41737Y35895D01*
Y35873D01*
X41739Y35853D01*
Y35835D01*
X41740Y35820D01*
Y35805D01*
X41742Y35793D01*
X41744Y35782D01*
Y35773D01*
X41745Y35767D01*
X41747Y35757D01*
Y35753D01*
X41754Y35730D01*
X41762Y35708D01*
X41774Y35690D01*
X41785Y35673D01*
X41797Y35662D01*
X41807Y35652D01*
X41812Y35645D01*
X41815Y35643D01*
X41839Y35628D01*
X41865Y35617D01*
X41894Y35610D01*
X41920Y35603D01*
X41944Y35600D01*
X41964Y35598D01*
X41982D01*
X42020Y35600D01*
X42054Y35605D01*
X42084Y35613D01*
X42108Y35622D01*
X42128Y35630D01*
X42142Y35638D01*
X42150Y35643D01*
X42153Y35645D01*
X42175Y35665D01*
X42192Y35685D01*
X42207Y35707D01*
X42217Y35727D01*
X42225Y35745D01*
X42230Y35758D01*
X42232Y35768D01*
X42233Y35770D01*
Y35772D01*
X42235Y35782D01*
X42237Y35795D01*
Y35810D01*
X42238Y35825D01*
X42240Y35861D01*
Y35896D01*
X42242Y35931D01*
Y35946D01*
Y35960D01*
Y35971D01*
Y35980D01*
Y35985D01*
Y35986D01*
Y36681D01*
X42500D01*
Y35996D01*
D02*
G37*
G36*
X25344Y34574D02*
X25361Y34573D01*
X25376Y34571D01*
X25391Y34568D01*
X25404Y34565D01*
X25416Y34561D01*
X25427Y34558D01*
X25436Y34554D01*
X25446Y34550D01*
X25453Y34546D01*
X25459Y34543D01*
X25464Y34540D01*
X25468Y34537D01*
X25471Y34535D01*
X25472Y34534D01*
X25473Y34533D01*
X25481Y34526D01*
X25489Y34517D01*
X25495Y34509D01*
X25501Y34500D01*
X25505Y34492D01*
X25509Y34483D01*
X25515Y34467D01*
X25518Y34453D01*
X25519Y34447D01*
X25520Y34442D01*
X25521Y34437D01*
Y34434D01*
Y34432D01*
Y34432D01*
X25520Y34419D01*
X25518Y34408D01*
X25516Y34397D01*
X25512Y34387D01*
X25503Y34369D01*
X25493Y34354D01*
X25483Y34342D01*
X25478Y34337D01*
X25474Y34333D01*
X25471Y34331D01*
X25468Y34328D01*
X25466Y34327D01*
X25466Y34327D01*
X25457Y34322D01*
X25446Y34317D01*
X25434Y34312D01*
X25420Y34306D01*
X25405Y34301D01*
X25389Y34296D01*
X25356Y34287D01*
X25341Y34282D01*
X25326Y34278D01*
X25313Y34275D01*
X25302Y34272D01*
X25292Y34270D01*
X25284Y34268D01*
X25279Y34267D01*
X25277D01*
X25267Y34264D01*
X25257Y34261D01*
X25251Y34258D01*
X25245Y34256D01*
X25241Y34254D01*
X25238Y34252D01*
X25237Y34251D01*
X25237D01*
X25233Y34247D01*
X25232Y34243D01*
X25228Y34236D01*
Y34232D01*
X25227Y34230D01*
Y34228D01*
Y34227D01*
X25228Y34220D01*
X25230Y34213D01*
X25232Y34208D01*
X25236Y34203D01*
X25239Y34200D01*
X25242Y34197D01*
X25243Y34196D01*
X25244Y34195D01*
X25254Y34189D01*
X25266Y34185D01*
X25277Y34182D01*
X25289Y34180D01*
X25299Y34178D01*
X25308Y34177D01*
X25316D01*
X25331Y34178D01*
X25345Y34180D01*
X25356Y34183D01*
X25366Y34187D01*
X25373Y34190D01*
X25379Y34193D01*
X25382Y34195D01*
X25383Y34196D01*
X25391Y34203D01*
X25398Y34212D01*
X25403Y34221D01*
X25407Y34230D01*
X25411Y34237D01*
X25412Y34244D01*
X25414Y34248D01*
Y34250D01*
X25537Y34231D01*
X25534Y34219D01*
X25530Y34207D01*
X25519Y34187D01*
X25507Y34169D01*
X25495Y34154D01*
X25484Y34142D01*
X25479Y34137D01*
X25475Y34133D01*
X25471Y34131D01*
X25468Y34128D01*
X25466Y34127D01*
X25466Y34127D01*
X25455Y34120D01*
X25443Y34114D01*
X25419Y34105D01*
X25394Y34098D01*
X25370Y34094D01*
X25359Y34093D01*
X25348Y34091D01*
X25339Y34090D01*
X25331D01*
X25325Y34089D01*
X25316D01*
X25297Y34090D01*
X25279Y34091D01*
X25262Y34093D01*
X25247Y34097D01*
X25232Y34100D01*
X25219Y34103D01*
X25207Y34107D01*
X25197Y34112D01*
X25188Y34117D01*
X25180Y34121D01*
X25173Y34124D01*
X25167Y34127D01*
X25163Y34131D01*
X25160Y34133D01*
X25158Y34134D01*
X25157Y34135D01*
X25148Y34144D01*
X25140Y34152D01*
X25132Y34162D01*
X25127Y34172D01*
X25122Y34181D01*
X25117Y34190D01*
X25111Y34207D01*
X25107Y34222D01*
X25106Y34228D01*
X25105Y34233D01*
X25104Y34238D01*
Y34242D01*
Y34243D01*
Y34244D01*
Y34255D01*
X25106Y34265D01*
X25110Y34283D01*
X25117Y34299D01*
X25123Y34312D01*
X25131Y34322D01*
X25137Y34330D01*
X25142Y34334D01*
X25142Y34336D01*
X25143D01*
X25151Y34342D01*
X25160Y34347D01*
X25170Y34353D01*
X25181Y34358D01*
X25203Y34367D01*
X25226Y34376D01*
X25237Y34379D01*
X25247Y34382D01*
X25256Y34385D01*
X25264Y34387D01*
X25271Y34388D01*
X25276Y34390D01*
X25279Y34391D01*
X25280D01*
X25297Y34395D01*
X25313Y34399D01*
X25327Y34402D01*
X25339Y34406D01*
X25350Y34409D01*
X25359Y34412D01*
X25367Y34414D01*
X25374Y34417D01*
X25380Y34418D01*
X25384Y34420D01*
X25388Y34422D01*
X25391Y34422D01*
X25394Y34424D01*
X25395Y34425D01*
X25399Y34428D01*
X25401Y34432D01*
X25405Y34440D01*
X25406Y34442D01*
X25406Y34445D01*
Y34447D01*
Y34447D01*
X25406Y34453D01*
X25404Y34458D01*
X25400Y34466D01*
X25395Y34471D01*
X25394Y34472D01*
X25393D01*
X25384Y34477D01*
X25373Y34481D01*
X25361Y34483D01*
X25351Y34485D01*
X25340Y34486D01*
X25331Y34487D01*
X25323D01*
X25310Y34486D01*
X25297Y34484D01*
X25287Y34482D01*
X25279Y34479D01*
X25272Y34477D01*
X25268Y34474D01*
X25265Y34472D01*
X25264Y34472D01*
X25257Y34466D01*
X25251Y34459D01*
X25246Y34452D01*
X25242Y34446D01*
X25239Y34440D01*
X25237Y34435D01*
X25236Y34432D01*
Y34431D01*
X25120Y34452D01*
X25127Y34473D01*
X25137Y34492D01*
X25148Y34507D01*
X25158Y34521D01*
X25168Y34531D01*
X25177Y34537D01*
X25180Y34540D01*
X25182Y34541D01*
X25183Y34543D01*
X25184D01*
X25193Y34549D01*
X25203Y34554D01*
X25226Y34561D01*
X25249Y34567D01*
X25272Y34571D01*
X25283Y34572D01*
X25293Y34573D01*
X25302Y34574D01*
X25310D01*
X25317Y34575D01*
X25326D01*
X25344Y34574D01*
D02*
G37*
G36*
X23953D02*
X23970Y34571D01*
X23985Y34567D01*
X24000Y34562D01*
X24013Y34556D01*
X24025Y34550D01*
X24037Y34542D01*
X24048Y34536D01*
X24057Y34528D01*
X24065Y34521D01*
X24073Y34514D01*
X24079Y34508D01*
X24084Y34503D01*
X24087Y34499D01*
X24089Y34497D01*
X24090Y34496D01*
Y34564D01*
X24204D01*
Y34100D01*
X24081D01*
Y34310D01*
Y34324D01*
X24080Y34337D01*
Y34348D01*
X24079Y34359D01*
X24079Y34369D01*
X24078Y34377D01*
X24077Y34386D01*
X24076Y34392D01*
X24075Y34398D01*
X24074Y34403D01*
Y34407D01*
X24074Y34411D01*
X24072Y34415D01*
Y34417D01*
X24068Y34427D01*
X24063Y34437D01*
X24057Y34444D01*
X24051Y34451D01*
X24045Y34457D01*
X24041Y34460D01*
X24038Y34462D01*
X24037Y34463D01*
X24027Y34469D01*
X24017Y34473D01*
X24008Y34477D01*
X23999Y34478D01*
X23991Y34480D01*
X23985Y34481D01*
X23980D01*
X23970Y34480D01*
X23962Y34479D01*
X23955Y34477D01*
X23948Y34475D01*
X23943Y34472D01*
X23940Y34470D01*
X23937Y34469D01*
X23936Y34468D01*
X23930Y34463D01*
X23925Y34457D01*
X23920Y34452D01*
X23917Y34446D01*
X23914Y34441D01*
X23912Y34437D01*
X23910Y34434D01*
Y34433D01*
X23909Y34428D01*
X23908Y34423D01*
X23906Y34417D01*
X23905Y34409D01*
X23904Y34393D01*
X23903Y34377D01*
X23902Y34362D01*
Y34355D01*
Y34349D01*
Y34344D01*
Y34340D01*
Y34337D01*
Y34337D01*
Y34100D01*
X23780D01*
Y34388D01*
Y34407D01*
X23780Y34424D01*
X23782Y34437D01*
X23783Y34450D01*
X23785Y34459D01*
X23786Y34466D01*
X23787Y34469D01*
Y34471D01*
X23790Y34482D01*
X23794Y34491D01*
X23798Y34500D01*
X23801Y34507D01*
X23805Y34514D01*
X23809Y34518D01*
X23810Y34522D01*
X23811Y34522D01*
X23818Y34531D01*
X23826Y34537D01*
X23835Y34544D01*
X23843Y34550D01*
X23850Y34554D01*
X23856Y34557D01*
X23860Y34559D01*
X23862Y34560D01*
X23875Y34565D01*
X23888Y34568D01*
X23900Y34571D01*
X23911Y34573D01*
X23921Y34574D01*
X23930Y34575D01*
X23936D01*
X23953Y34574D01*
D02*
G37*
G36*
X24563Y34573D02*
X24586Y34570D01*
X24607Y34565D01*
X24625Y34560D01*
X24633Y34556D01*
X24640Y34554D01*
X24647Y34551D01*
X24652Y34549D01*
X24656Y34546D01*
X24659Y34546D01*
X24661Y34544D01*
X24662D01*
X24681Y34531D01*
X24698Y34517D01*
X24713Y34503D01*
X24725Y34489D01*
X24734Y34477D01*
X24738Y34471D01*
X24741Y34466D01*
X24743Y34462D01*
X24745Y34459D01*
X24747Y34457D01*
Y34457D01*
X24757Y34435D01*
X24764Y34414D01*
X24769Y34394D01*
X24773Y34376D01*
X24774Y34368D01*
X24775Y34361D01*
X24776Y34354D01*
Y34349D01*
X24777Y34344D01*
Y34341D01*
Y34339D01*
Y34338D01*
X24775Y34309D01*
X24772Y34283D01*
X24770Y34272D01*
X24768Y34260D01*
X24764Y34250D01*
X24762Y34241D01*
X24759Y34232D01*
X24756Y34224D01*
X24753Y34218D01*
X24752Y34212D01*
X24749Y34208D01*
X24748Y34205D01*
X24747Y34203D01*
Y34202D01*
X24734Y34182D01*
X24720Y34166D01*
X24706Y34151D01*
X24692Y34139D01*
X24679Y34130D01*
X24673Y34126D01*
X24668Y34123D01*
X24665Y34121D01*
X24662Y34119D01*
X24660Y34117D01*
X24659D01*
X24638Y34108D01*
X24615Y34101D01*
X24595Y34096D01*
X24576Y34093D01*
X24568Y34092D01*
X24560Y34091D01*
X24553Y34090D01*
X24548D01*
X24543Y34089D01*
X24537D01*
X24518Y34090D01*
X24500Y34093D01*
X24483Y34096D01*
X24467Y34100D01*
X24452Y34105D01*
X24438Y34111D01*
X24425Y34117D01*
X24413Y34124D01*
X24403Y34130D01*
X24393Y34137D01*
X24385Y34142D01*
X24379Y34147D01*
X24373Y34152D01*
X24369Y34155D01*
X24367Y34157D01*
X24366Y34158D01*
X24354Y34172D01*
X24344Y34186D01*
X24334Y34200D01*
X24327Y34215D01*
X24320Y34230D01*
X24314Y34244D01*
X24310Y34258D01*
X24306Y34272D01*
X24304Y34284D01*
X24301Y34296D01*
X24299Y34307D01*
X24299Y34316D01*
Y34323D01*
X24298Y34328D01*
Y34332D01*
Y34333D01*
X24299Y34352D01*
X24300Y34371D01*
X24304Y34388D01*
X24309Y34404D01*
X24314Y34419D01*
X24319Y34433D01*
X24325Y34447D01*
X24331Y34458D01*
X24338Y34469D01*
X24344Y34478D01*
X24349Y34487D01*
X24354Y34493D01*
X24359Y34499D01*
X24362Y34502D01*
X24364Y34505D01*
X24365Y34506D01*
X24379Y34518D01*
X24392Y34528D01*
X24406Y34538D01*
X24421Y34546D01*
X24435Y34552D01*
X24449Y34558D01*
X24464Y34562D01*
X24477Y34566D01*
X24490Y34569D01*
X24502Y34571D01*
X24512Y34572D01*
X24521Y34574D01*
X24528D01*
X24533Y34575D01*
X24538D01*
X24563Y34573D01*
D02*
G37*
G36*
X35375Y36348D02*
X35405Y36343D01*
X35433Y36336D01*
X35459Y36326D01*
X35484Y36315D01*
X35508Y36303D01*
X35529Y36288D01*
X35549Y36275D01*
X35568Y36261D01*
X35584Y36248D01*
X35598Y36235D01*
X35609Y36223D01*
X35619Y36213D01*
X35626Y36206D01*
X35629Y36201D01*
X35631Y36200D01*
Y36328D01*
X35858D01*
Y35400D01*
X35613D01*
Y35850D01*
Y35875D01*
X35611Y35896D01*
Y35918D01*
X35609Y35936D01*
X35608Y35955D01*
X35606Y35970D01*
X35603Y35996D01*
X35599Y36016D01*
X35598Y36030D01*
X35594Y36038D01*
Y36041D01*
X35586Y36061D01*
X35576Y36080D01*
X35564Y36095D01*
X35554Y36108D01*
X35544Y36116D01*
X35536Y36125D01*
X35531Y36128D01*
X35529Y36130D01*
X35511Y36140D01*
X35493Y36148D01*
X35476Y36153D01*
X35459Y36158D01*
X35446Y36160D01*
X35436Y36161D01*
X35410D01*
X35395Y36158D01*
X35383Y36155D01*
X35371Y36151D01*
X35365Y36148D01*
X35358Y36145D01*
X35355Y36143D01*
X35353Y36141D01*
X35343Y36133D01*
X35335Y36123D01*
X35321Y36105D01*
X35316Y36095D01*
X35313Y36088D01*
X35311Y36083D01*
Y36081D01*
X35310Y36073D01*
X35306Y36063D01*
X35303Y36038D01*
X35301Y36010D01*
X35300Y35980D01*
X35298Y35953D01*
Y35941D01*
Y35930D01*
Y35921D01*
Y35915D01*
Y35910D01*
Y35908D01*
Y35400D01*
X35053D01*
Y35845D01*
Y35868D01*
X35051Y35891D01*
X35050Y35930D01*
X35046Y35963D01*
X35043Y35990D01*
X35040Y36010D01*
X35036Y36025D01*
X35033Y36033D01*
Y36036D01*
X35025Y36058D01*
X35015Y36076D01*
X35003Y36093D01*
X34993Y36106D01*
X34983Y36116D01*
X34975Y36123D01*
X34970Y36128D01*
X34968Y36130D01*
X34951Y36140D01*
X34935Y36148D01*
X34918Y36153D01*
X34903Y36158D01*
X34890Y36160D01*
X34880Y36161D01*
X34871D01*
X34846Y36160D01*
X34825Y36153D01*
X34806Y36145D01*
X34791Y36135D01*
X34781Y36125D01*
X34773Y36116D01*
X34768Y36110D01*
X34766Y36108D01*
X34761Y36100D01*
X34758Y36090D01*
X34751Y36063D01*
X34746Y36035D01*
X34743Y36005D01*
X34741Y35976D01*
X34740Y35963D01*
Y35951D01*
Y35943D01*
Y35936D01*
Y35931D01*
Y35930D01*
Y35400D01*
X34495D01*
Y35993D01*
Y36018D01*
X34497Y36040D01*
Y36060D01*
X34498Y36080D01*
X34503Y36113D01*
X34508Y36140D01*
X34513Y36160D01*
X34517Y36173D01*
X34520Y36181D01*
X34522Y36185D01*
X34537Y36213D01*
X34553Y36238D01*
X34570Y36260D01*
X34588Y36276D01*
X34603Y36291D01*
X34616Y36300D01*
X34625Y36306D01*
X34626Y36308D01*
X34628D01*
X34655Y36321D01*
X34685Y36331D01*
X34713Y36340D01*
X34740Y36345D01*
X34763Y36348D01*
X34783Y36350D01*
X34800D01*
X34830Y36348D01*
X34856Y36343D01*
X34883Y36338D01*
X34905Y36331D01*
X34925Y36323D01*
X34938Y36318D01*
X34948Y36313D01*
X34950Y36311D01*
X34951D01*
X34976Y36296D01*
X35001Y36278D01*
X35023Y36260D01*
X35043Y36243D01*
X35060Y36226D01*
X35073Y36213D01*
X35080Y36205D01*
X35083Y36203D01*
Y36201D01*
X35100Y36228D01*
X35118Y36250D01*
X35135Y36268D01*
X35151Y36285D01*
X35166Y36296D01*
X35178Y36305D01*
X35186Y36310D01*
X35190Y36311D01*
X35215Y36325D01*
X35241Y36333D01*
X35268Y36340D01*
X35291Y36345D01*
X35313Y36348D01*
X35330Y36350D01*
X35345D01*
X35375Y36348D01*
D02*
G37*
G36*
X33264Y35400D02*
X33035D01*
Y35535D01*
X33014Y35508D01*
X32992Y35485D01*
X32969Y35465D01*
X32949Y35448D01*
X32931Y35435D01*
X32917Y35427D01*
X32907Y35420D01*
X32904Y35418D01*
X32874Y35405D01*
X32846Y35395D01*
X32819Y35388D01*
X32796Y35383D01*
X32776Y35380D01*
X32759Y35378D01*
X32746D01*
X32716Y35380D01*
X32687Y35383D01*
X32661Y35390D01*
X32634Y35398D01*
X32611Y35408D01*
X32587Y35418D01*
X32567Y35430D01*
X32547Y35443D01*
X32531Y35455D01*
X32516Y35467D01*
X32502Y35477D01*
X32491Y35487D01*
X32482Y35495D01*
X32476Y35502D01*
X32472Y35505D01*
X32471Y35507D01*
X32451Y35532D01*
X32434Y35560D01*
X32417Y35588D01*
X32406Y35618D01*
X32394Y35648D01*
X32386Y35678D01*
X32371Y35738D01*
X32367Y35765D01*
X32364Y35792D01*
X32361Y35815D01*
X32359Y35833D01*
X32357Y35850D01*
Y35863D01*
Y35870D01*
Y35873D01*
X32359Y35915D01*
X32362Y35955D01*
X32367Y35991D01*
X32374Y36025D01*
X32384Y36056D01*
X32392Y36086D01*
X32402Y36113D01*
X32412Y36136D01*
X32424Y36156D01*
X32434Y36175D01*
X32442Y36191D01*
X32451Y36203D01*
X32459Y36213D01*
X32464Y36221D01*
X32467Y36225D01*
X32469Y36226D01*
X32491Y36248D01*
X32512Y36266D01*
X32536Y36283D01*
X32561Y36298D01*
X32584Y36310D01*
X32607Y36320D01*
X32631Y36328D01*
X32652Y36335D01*
X32672Y36340D01*
X32691Y36343D01*
X32707Y36346D01*
X32722Y36348D01*
X32734Y36350D01*
X32751D01*
X32779Y36348D01*
X32807Y36345D01*
X32832Y36338D01*
X32857Y36330D01*
X32904Y36308D01*
X32924Y36296D01*
X32942Y36285D01*
X32960Y36273D01*
X32975Y36261D01*
X32987Y36250D01*
X32999Y36240D01*
X33007Y36231D01*
X33014Y36225D01*
X33017Y36221D01*
X33019Y36220D01*
Y36681D01*
X33264D01*
Y35400D01*
D02*
G37*
G36*
X40011D02*
X39531D01*
X39491Y35402D01*
X39423D01*
X39395Y35403D01*
X39346D01*
X39328Y35405D01*
X39311D01*
X39298Y35407D01*
X39278D01*
X39271Y35408D01*
X39265D01*
X39228Y35415D01*
X39195Y35423D01*
X39165Y35432D01*
X39140Y35443D01*
X39120Y35452D01*
X39103Y35460D01*
X39095Y35467D01*
X39091Y35468D01*
X39066Y35488D01*
X39043Y35510D01*
X39025Y35532D01*
X39008Y35553D01*
X38996Y35572D01*
X38986Y35587D01*
X38981Y35597D01*
X38980Y35598D01*
Y35600D01*
X38966Y35632D01*
X38956Y35662D01*
X38948Y35690D01*
X38943Y35717D01*
X38940Y35738D01*
X38938Y35755D01*
Y35762D01*
Y35767D01*
Y35768D01*
Y35770D01*
X38941Y35810D01*
X38948Y35846D01*
X38958Y35880D01*
X38970Y35908D01*
X38981Y35931D01*
X38991Y35948D01*
X38995Y35955D01*
X38998Y35960D01*
X39001Y35961D01*
Y35963D01*
X39028Y35991D01*
X39056Y36016D01*
X39086Y36036D01*
X39115Y36051D01*
X39141Y36065D01*
X39153Y36070D01*
X39161Y36073D01*
X39170Y36076D01*
X39176Y36078D01*
X39180Y36080D01*
X39181D01*
X39151Y36096D01*
X39126Y36113D01*
X39103Y36133D01*
X39085Y36151D01*
X39070Y36168D01*
X39058Y36181D01*
X39051Y36190D01*
X39050Y36193D01*
X39033Y36221D01*
X39021Y36250D01*
X39013Y36278D01*
X39008Y36303D01*
X39003Y36326D01*
X39001Y36343D01*
Y36350D01*
Y36355D01*
Y36356D01*
Y36358D01*
X39003Y36388D01*
X39008Y36416D01*
X39015Y36441D01*
X39021Y36465D01*
X39028Y36483D01*
X39035Y36496D01*
X39040Y36505D01*
X39041Y36508D01*
X39056Y36531D01*
X39073Y36553D01*
X39090Y36571D01*
X39105Y36586D01*
X39120Y36598D01*
X39130Y36608D01*
X39136Y36613D01*
X39140Y36615D01*
X39161Y36628D01*
X39185Y36639D01*
X39208Y36649D01*
X39228Y36656D01*
X39246Y36661D01*
X39260Y36664D01*
X39270Y36668D01*
X39273D01*
X39288Y36669D01*
X39305Y36673D01*
X39340Y36676D01*
X39378Y36678D01*
X39415Y36679D01*
X39448Y36681D01*
X40011D01*
Y35400D01*
D02*
G37*
G36*
X40812Y36703D02*
X40861Y36698D01*
X40902Y36689D01*
X40922Y36686D01*
X40939Y36683D01*
X40956Y36678D01*
X40969Y36674D01*
X40982Y36669D01*
X40992Y36666D01*
X41001Y36664D01*
X41006Y36661D01*
X41009Y36660D01*
X41011D01*
X41047Y36641D01*
X41079Y36620D01*
X41106Y36598D01*
X41129Y36576D01*
X41146Y36558D01*
X41159Y36543D01*
X41166Y36531D01*
X41169Y36530D01*
Y36528D01*
X41187Y36496D01*
X41201Y36463D01*
X41211Y36433D01*
X41217Y36405D01*
X41221Y36381D01*
X41222Y36363D01*
X41224Y36356D01*
Y36351D01*
Y36348D01*
Y36346D01*
X41222Y36318D01*
X41219Y36291D01*
X41214Y36265D01*
X41206Y36241D01*
X41187Y36196D01*
X41176Y36176D01*
X41166Y36160D01*
X41154Y36143D01*
X41144Y36128D01*
X41134Y36116D01*
X41126Y36105D01*
X41117Y36098D01*
X41112Y36091D01*
X41109Y36088D01*
X41107Y36086D01*
X41091Y36073D01*
X41071Y36060D01*
X41049Y36046D01*
X41027Y36035D01*
X40979Y36013D01*
X40931Y35995D01*
X40907Y35986D01*
X40886Y35980D01*
X40866Y35975D01*
X40849Y35970D01*
X40836Y35965D01*
X40824Y35961D01*
X40817Y35960D01*
X40816D01*
X40787Y35953D01*
X40761Y35946D01*
X40737Y35940D01*
X40716Y35935D01*
X40696Y35930D01*
X40679Y35925D01*
X40664Y35920D01*
X40652Y35916D01*
X40641Y35913D01*
X40632Y35910D01*
X40624Y35908D01*
X40619Y35906D01*
X40611Y35905D01*
X40609Y35903D01*
X40586Y35895D01*
X40566Y35885D01*
X40551Y35875D01*
X40537Y35866D01*
X40527Y35860D01*
X40521Y35853D01*
X40517Y35850D01*
X40516Y35848D01*
X40507Y35836D01*
X40501Y35823D01*
X40496Y35810D01*
X40492Y35797D01*
X40491Y35787D01*
X40489Y35778D01*
Y35772D01*
Y35770D01*
X40492Y35745D01*
X40499Y35722D01*
X40509Y35700D01*
X40521Y35682D01*
X40534Y35667D01*
X40544Y35657D01*
X40551Y35648D01*
X40554Y35647D01*
X40581Y35630D01*
X40611Y35617D01*
X40641Y35608D01*
X40672Y35602D01*
X40699Y35598D01*
X40711Y35597D01*
X40722D01*
X40731Y35595D01*
X40742D01*
X40784Y35598D01*
X40821Y35605D01*
X40852Y35613D01*
X40879Y35625D01*
X40901Y35635D01*
X40916Y35645D01*
X40926Y35652D01*
X40929Y35653D01*
X40952Y35678D01*
X40972Y35708D01*
X40989Y35738D01*
X41001Y35770D01*
X41011Y35797D01*
X41014Y35808D01*
X41016Y35820D01*
X41017Y35828D01*
X41019Y35835D01*
X41021Y35838D01*
Y35840D01*
X41272Y35815D01*
X41265Y35777D01*
X41259Y35740D01*
X41249Y35705D01*
X41237Y35673D01*
X41226Y35643D01*
X41212Y35617D01*
X41199Y35593D01*
X41186Y35572D01*
X41172Y35552D01*
X41159Y35535D01*
X41149Y35522D01*
X41137Y35510D01*
X41129Y35500D01*
X41122Y35493D01*
X41119Y35490D01*
X41117Y35488D01*
X41092Y35468D01*
X41064Y35452D01*
X41034Y35437D01*
X41004Y35423D01*
X40972Y35413D01*
X40942Y35403D01*
X40882Y35390D01*
X40854Y35387D01*
X40827Y35383D01*
X40804Y35380D01*
X40784Y35378D01*
X40767Y35377D01*
X40744D01*
X40684Y35378D01*
X40631Y35383D01*
X40606Y35388D01*
X40582Y35392D01*
X40562Y35395D01*
X40542Y35400D01*
X40526Y35405D01*
X40509Y35408D01*
X40497Y35413D01*
X40486Y35417D01*
X40477Y35418D01*
X40471Y35422D01*
X40467Y35423D01*
X40466D01*
X40426Y35443D01*
X40391Y35465D01*
X40363Y35488D01*
X40338Y35512D01*
X40318Y35533D01*
X40304Y35550D01*
X40299Y35557D01*
X40296Y35562D01*
X40293Y35563D01*
Y35565D01*
X40273Y35602D01*
X40258Y35638D01*
X40246Y35673D01*
X40239Y35705D01*
X40234Y35733D01*
X40233Y35745D01*
Y35755D01*
X40231Y35762D01*
Y35768D01*
Y35772D01*
Y35773D01*
X40233Y35817D01*
X40239Y35856D01*
X40248Y35891D01*
X40256Y35920D01*
X40266Y35945D01*
X40271Y35953D01*
X40274Y35961D01*
X40278Y35968D01*
X40281Y35973D01*
X40283Y35975D01*
Y35976D01*
X40304Y36006D01*
X40326Y36031D01*
X40349Y36055D01*
X40373Y36073D01*
X40393Y36088D01*
X40409Y36100D01*
X40416Y36103D01*
X40421Y36106D01*
X40423Y36108D01*
X40424D01*
X40442Y36116D01*
X40462Y36126D01*
X40506Y36143D01*
X40552Y36158D01*
X40597Y36173D01*
X40617Y36180D01*
X40637Y36185D01*
X40656Y36190D01*
X40671Y36193D01*
X40684Y36196D01*
X40694Y36200D01*
X40701Y36201D01*
X40702D01*
X40736Y36210D01*
X40767Y36218D01*
X40794Y36226D01*
X40819Y36233D01*
X40841Y36241D01*
X40861Y36248D01*
X40877Y36255D01*
X40891Y36261D01*
X40904Y36266D01*
X40914Y36271D01*
X40922Y36276D01*
X40929Y36280D01*
X40934Y36283D01*
X40937Y36285D01*
X40939Y36286D01*
X40952Y36300D01*
X40961Y36313D01*
X40967Y36326D01*
X40972Y36338D01*
X40976Y36348D01*
X40977Y36358D01*
Y36363D01*
Y36365D01*
X40976Y36383D01*
X40971Y36398D01*
X40964Y36411D01*
X40957Y36423D01*
X40951Y36433D01*
X40944Y36440D01*
X40939Y36443D01*
X40937Y36445D01*
X40912Y36460D01*
X40882Y36471D01*
X40854Y36480D01*
X40826Y36486D01*
X40799Y36490D01*
X40789D01*
X40779Y36491D01*
X40761D01*
X40722Y36490D01*
X40689Y36485D01*
X40661Y36478D01*
X40639Y36470D01*
X40621Y36461D01*
X40607Y36455D01*
X40601Y36450D01*
X40597Y36448D01*
X40579Y36430D01*
X40562Y36408D01*
X40551Y36385D01*
X40541Y36361D01*
X40534Y36340D01*
X40529Y36323D01*
X40527Y36316D01*
X40526Y36311D01*
Y36308D01*
Y36306D01*
X40268Y36316D01*
X40269Y36348D01*
X40274Y36380D01*
X40283Y36408D01*
X40291Y36435D01*
X40301Y36460D01*
X40311Y36483D01*
X40323Y36505D01*
X40334Y36523D01*
X40346Y36541D01*
X40358Y36556D01*
X40368Y36568D01*
X40376Y36580D01*
X40384Y36588D01*
X40391Y36593D01*
X40394Y36596D01*
X40396Y36598D01*
X40419Y36616D01*
X40446Y36633D01*
X40474Y36648D01*
X40504Y36660D01*
X40534Y36669D01*
X40564Y36678D01*
X40622Y36691D01*
X40651Y36696D01*
X40676Y36699D01*
X40699Y36701D01*
X40719Y36703D01*
X40736Y36704D01*
X40759D01*
X40812Y36703D01*
D02*
G37*
G36*
X37774Y24882D02*
X37802Y24878D01*
X37829Y24873D01*
X37854Y24866D01*
X37877Y24858D01*
X37898Y24849D01*
X37918Y24840D01*
X37935Y24830D01*
X37951Y24820D01*
X37965Y24810D01*
X37977Y24801D01*
X37987Y24793D01*
X37995Y24786D01*
X38000Y24781D01*
X38004Y24777D01*
X38005Y24776D01*
X38022Y24755D01*
X38038Y24733D01*
X38051Y24709D01*
X38062Y24685D01*
X38072Y24660D01*
X38080Y24635D01*
X38086Y24611D01*
X38092Y24587D01*
X38096Y24565D01*
X38099Y24544D01*
X38101Y24526D01*
X38102Y24510D01*
X38103Y24496D01*
X38104Y24486D01*
Y24483D01*
Y24480D01*
Y24479D01*
Y24478D01*
X38103Y24445D01*
X38100Y24413D01*
X38095Y24384D01*
X38089Y24356D01*
X38081Y24331D01*
X38073Y24307D01*
X38064Y24286D01*
X38055Y24266D01*
X38046Y24249D01*
X38037Y24234D01*
X38029Y24221D01*
X38021Y24210D01*
X38015Y24202D01*
X38010Y24196D01*
X38007Y24192D01*
X38006Y24191D01*
X37987Y24173D01*
X37967Y24157D01*
X37946Y24143D01*
X37925Y24131D01*
X37904Y24121D01*
X37883Y24112D01*
X37862Y24106D01*
X37843Y24100D01*
X37824Y24096D01*
X37808Y24093D01*
X37792Y24090D01*
X37779Y24089D01*
X37769Y24088D01*
X37761Y24087D01*
X37754D01*
X37731Y24088D01*
X37710Y24090D01*
X37689Y24093D01*
X37670Y24097D01*
X37652Y24101D01*
X37635Y24106D01*
X37619Y24112D01*
X37605Y24118D01*
X37593Y24123D01*
X37582Y24129D01*
X37572Y24134D01*
X37564Y24139D01*
X37558Y24142D01*
X37554Y24145D01*
X37551Y24147D01*
X37550Y24148D01*
X37535Y24160D01*
X37522Y24174D01*
X37509Y24188D01*
X37498Y24204D01*
X37487Y24219D01*
X37478Y24235D01*
X37462Y24266D01*
X37455Y24280D01*
X37449Y24294D01*
X37445Y24306D01*
X37441Y24316D01*
X37438Y24325D01*
X37436Y24331D01*
X37434Y24336D01*
Y24337D01*
X37585Y24384D01*
X37589Y24369D01*
X37594Y24354D01*
X37598Y24341D01*
X37604Y24329D01*
X37609Y24317D01*
X37614Y24307D01*
X37620Y24298D01*
X37625Y24290D01*
X37635Y24276D01*
X37643Y24267D01*
X37648Y24261D01*
X37649Y24260D01*
X37650Y24259D01*
X37667Y24246D01*
X37685Y24236D01*
X37703Y24230D01*
X37719Y24225D01*
X37734Y24222D01*
X37746Y24221D01*
X37750Y24220D01*
X37756D01*
X37771Y24221D01*
X37786Y24223D01*
X37800Y24226D01*
X37813Y24230D01*
X37836Y24239D01*
X37855Y24251D01*
X37864Y24256D01*
X37871Y24262D01*
X37877Y24267D01*
X37883Y24272D01*
X37887Y24275D01*
X37890Y24278D01*
X37891Y24280D01*
X37892Y24281D01*
X37901Y24294D01*
X37909Y24308D01*
X37916Y24323D01*
X37922Y24340D01*
X37931Y24374D01*
X37937Y24408D01*
X37940Y24424D01*
X37941Y24440D01*
X37942Y24453D01*
X37943Y24465D01*
X37944Y24475D01*
Y24483D01*
Y24487D01*
Y24489D01*
X37943Y24514D01*
X37942Y24537D01*
X37939Y24559D01*
X37936Y24578D01*
X37932Y24596D01*
X37927Y24613D01*
X37922Y24627D01*
X37917Y24640D01*
X37913Y24652D01*
X37908Y24661D01*
X37903Y24670D01*
X37899Y24676D01*
X37896Y24681D01*
X37893Y24685D01*
X37892Y24687D01*
X37891Y24688D01*
X37881Y24699D01*
X37870Y24708D01*
X37859Y24717D01*
X37847Y24724D01*
X37835Y24730D01*
X37824Y24735D01*
X37802Y24742D01*
X37783Y24747D01*
X37774Y24748D01*
X37767Y24749D01*
X37761Y24750D01*
X37753D01*
X37731Y24749D01*
X37710Y24745D01*
X37692Y24739D01*
X37677Y24733D01*
X37665Y24726D01*
X37656Y24721D01*
X37650Y24717D01*
X37648Y24715D01*
X37633Y24701D01*
X37620Y24686D01*
X37610Y24670D01*
X37602Y24655D01*
X37597Y24642D01*
X37593Y24631D01*
X37592Y24627D01*
X37591Y24624D01*
X37590Y24622D01*
Y24621D01*
X37436Y24658D01*
X37441Y24675D01*
X37447Y24691D01*
X37453Y24705D01*
X37460Y24719D01*
X37466Y24732D01*
X37473Y24743D01*
X37479Y24754D01*
X37486Y24763D01*
X37492Y24771D01*
X37497Y24779D01*
X37502Y24785D01*
X37506Y24790D01*
X37510Y24794D01*
X37513Y24797D01*
X37514Y24798D01*
X37515Y24799D01*
X37532Y24814D01*
X37550Y24827D01*
X37569Y24838D01*
X37588Y24848D01*
X37607Y24856D01*
X37626Y24863D01*
X37645Y24868D01*
X37663Y24873D01*
X37680Y24876D01*
X37695Y24879D01*
X37709Y24880D01*
X37721Y24882D01*
X37731D01*
X37739Y24883D01*
X37745D01*
X37774Y24882D01*
D02*
G37*
G36*
X35059Y24669D02*
X35080Y24667D01*
X35101Y24663D01*
X35120Y24658D01*
X35137Y24652D01*
X35154Y24646D01*
X35168Y24639D01*
X35182Y24632D01*
X35194Y24624D01*
X35204Y24617D01*
X35213Y24611D01*
X35221Y24605D01*
X35226Y24600D01*
X35231Y24596D01*
X35233Y24594D01*
X35234Y24593D01*
X35247Y24578D01*
X35258Y24562D01*
X35267Y24545D01*
X35276Y24527D01*
X35283Y24509D01*
X35288Y24491D01*
X35293Y24473D01*
X35297Y24456D01*
X35300Y24440D01*
X35302Y24425D01*
X35304Y24412D01*
X35305Y24400D01*
Y24390D01*
X35306Y24383D01*
Y24379D01*
Y24377D01*
X35305Y24352D01*
X35303Y24329D01*
X35299Y24307D01*
X35295Y24286D01*
X35289Y24267D01*
X35283Y24250D01*
X35277Y24234D01*
X35270Y24220D01*
X35263Y24207D01*
X35257Y24196D01*
X35251Y24186D01*
X35245Y24178D01*
X35241Y24172D01*
X35237Y24168D01*
X35235Y24165D01*
X35234Y24164D01*
X35220Y24150D01*
X35205Y24139D01*
X35189Y24128D01*
X35173Y24120D01*
X35156Y24112D01*
X35140Y24106D01*
X35124Y24101D01*
X35109Y24097D01*
X35095Y24093D01*
X35081Y24091D01*
X35069Y24089D01*
X35059Y24088D01*
X35051D01*
X35044Y24087D01*
X35039D01*
X35019Y24088D01*
X35001Y24089D01*
X34983Y24092D01*
X34967Y24095D01*
X34952Y24099D01*
X34938Y24103D01*
X34925Y24107D01*
X34913Y24112D01*
X34903Y24117D01*
X34894Y24121D01*
X34886Y24125D01*
X34880Y24129D01*
X34875Y24132D01*
X34871Y24135D01*
X34869Y24136D01*
X34868Y24137D01*
X34856Y24147D01*
X34846Y24158D01*
X34827Y24182D01*
X34812Y24207D01*
X34800Y24232D01*
X34796Y24243D01*
X34792Y24254D01*
X34788Y24263D01*
X34786Y24272D01*
X34784Y24278D01*
X34782Y24284D01*
X34781Y24287D01*
Y24288D01*
X34926Y24313D01*
X34931Y24293D01*
X34937Y24275D01*
X34943Y24261D01*
X34949Y24249D01*
X34955Y24241D01*
X34960Y24235D01*
X34963Y24231D01*
X34964Y24230D01*
X34975Y24222D01*
X34986Y24217D01*
X34998Y24213D01*
X35009Y24210D01*
X35018Y24208D01*
X35026Y24207D01*
X35033D01*
X35053Y24209D01*
X35070Y24213D01*
X35086Y24220D01*
X35098Y24228D01*
X35109Y24235D01*
X35116Y24242D01*
X35120Y24246D01*
X35122Y24248D01*
X35128Y24256D01*
X35133Y24266D01*
X35141Y24287D01*
X35147Y24310D01*
X35151Y24333D01*
X35153Y24355D01*
X35154Y24364D01*
Y24372D01*
X35155Y24379D01*
Y24384D01*
Y24387D01*
Y24388D01*
Y24404D01*
X35154Y24419D01*
X35152Y24433D01*
X35150Y24445D01*
X35148Y24457D01*
X35145Y24467D01*
X35142Y24477D01*
X35139Y24485D01*
X35136Y24492D01*
X35133Y24498D01*
X35130Y24504D01*
X35128Y24508D01*
X35124Y24513D01*
X35123Y24515D01*
X35110Y24528D01*
X35095Y24538D01*
X35080Y24545D01*
X35066Y24549D01*
X35053Y24552D01*
X35043Y24553D01*
X35039Y24554D01*
X35034D01*
X35019Y24553D01*
X35006Y24551D01*
X34995Y24547D01*
X34985Y24543D01*
X34977Y24539D01*
X34972Y24535D01*
X34968Y24533D01*
X34967Y24532D01*
X34958Y24523D01*
X34951Y24513D01*
X34945Y24502D01*
X34940Y24491D01*
X34937Y24482D01*
X34935Y24474D01*
X34933Y24469D01*
Y24468D01*
Y24467D01*
X34788Y24493D01*
X34793Y24509D01*
X34799Y24524D01*
X34806Y24538D01*
X34813Y24551D01*
X34820Y24563D01*
X34827Y24574D01*
X34835Y24584D01*
X34842Y24593D01*
X34848Y24601D01*
X34855Y24607D01*
X34860Y24613D01*
X34865Y24618D01*
X34869Y24621D01*
X34872Y24624D01*
X34874Y24626D01*
X34875D01*
X34887Y24634D01*
X34899Y24641D01*
X34925Y24651D01*
X34952Y24659D01*
X34978Y24665D01*
X34990Y24666D01*
X35001Y24668D01*
X35011Y24669D01*
X35019D01*
X35026Y24670D01*
X35036D01*
X35059Y24669D01*
D02*
G37*
G36*
X23106Y36348D02*
X23126Y36345D01*
X23143Y36340D01*
X23159Y36335D01*
X23171Y36328D01*
X23181Y36323D01*
X23188Y36320D01*
X23189Y36318D01*
X23208Y36305D01*
X23226Y36286D01*
X23243Y36266D01*
X23259Y36245D01*
X23273Y36226D01*
X23284Y36210D01*
X23289Y36203D01*
X23291Y36198D01*
X23294Y36196D01*
Y36328D01*
X23523D01*
Y35400D01*
X23278D01*
Y35687D01*
Y35730D01*
X23276Y35768D01*
Y35803D01*
X23274Y35835D01*
X23273Y35863D01*
X23271Y35888D01*
X23269Y35911D01*
X23268Y35930D01*
X23266Y35946D01*
X23264Y35961D01*
X23263Y35971D01*
X23261Y35981D01*
X23259Y35988D01*
X23258Y35993D01*
Y35996D01*
X23249Y36023D01*
X23241Y36045D01*
X23231Y36061D01*
X23223Y36076D01*
X23214Y36086D01*
X23208Y36095D01*
X23204Y36098D01*
X23203Y36100D01*
X23188Y36110D01*
X23173Y36116D01*
X23158Y36123D01*
X23144Y36126D01*
X23131Y36128D01*
X23121Y36130D01*
X23113D01*
X23093Y36128D01*
X23073Y36123D01*
X23053Y36116D01*
X23034Y36110D01*
X23019Y36101D01*
X23008Y36095D01*
X23001Y36090D01*
X22998Y36088D01*
X22921Y36303D01*
X22951Y36318D01*
X22979Y36330D01*
X23008Y36338D01*
X23033Y36345D01*
X23053Y36348D01*
X23069Y36350D01*
X23084D01*
X23106Y36348D01*
D02*
G37*
G36*
X31791Y36346D02*
X31836Y36340D01*
X31878Y36330D01*
X31914Y36320D01*
X31931Y36313D01*
X31944Y36308D01*
X31958Y36303D01*
X31968Y36298D01*
X31976Y36293D01*
X31983Y36291D01*
X31986Y36288D01*
X31988D01*
X32026Y36263D01*
X32061Y36235D01*
X32089Y36206D01*
X32114Y36178D01*
X32132Y36153D01*
X32141Y36141D01*
X32146Y36131D01*
X32151Y36125D01*
X32154Y36118D01*
X32157Y36115D01*
Y36113D01*
X32177Y36070D01*
X32192Y36028D01*
X32202Y35988D01*
X32209Y35951D01*
X32212Y35936D01*
X32214Y35921D01*
X32216Y35908D01*
Y35898D01*
X32217Y35888D01*
Y35881D01*
Y35878D01*
Y35876D01*
X32214Y35818D01*
X32207Y35767D01*
X32204Y35743D01*
X32199Y35720D01*
X32192Y35700D01*
X32187Y35682D01*
X32182Y35663D01*
X32176Y35648D01*
X32171Y35637D01*
X32167Y35625D01*
X32162Y35617D01*
X32161Y35610D01*
X32157Y35607D01*
Y35605D01*
X32132Y35565D01*
X32104Y35532D01*
X32076Y35502D01*
X32048Y35478D01*
X32023Y35460D01*
X32011Y35452D01*
X32001Y35447D01*
X31994Y35442D01*
X31988Y35438D01*
X31984Y35435D01*
X31983D01*
X31939Y35417D01*
X31894Y35402D01*
X31854Y35392D01*
X31816Y35385D01*
X31799Y35383D01*
X31784Y35382D01*
X31771Y35380D01*
X31759D01*
X31751Y35378D01*
X31738D01*
X31699Y35380D01*
X31664Y35385D01*
X31629Y35392D01*
X31598Y35400D01*
X31568Y35410D01*
X31539Y35422D01*
X31514Y35435D01*
X31489Y35448D01*
X31469Y35460D01*
X31449Y35473D01*
X31434Y35485D01*
X31421Y35495D01*
X31409Y35503D01*
X31403Y35510D01*
X31398Y35515D01*
X31396Y35517D01*
X31373Y35543D01*
X31351Y35572D01*
X31333Y35600D01*
X31318Y35630D01*
X31304Y35660D01*
X31293Y35688D01*
X31284Y35717D01*
X31276Y35743D01*
X31271Y35768D01*
X31266Y35792D01*
X31263Y35813D01*
X31261Y35831D01*
Y35846D01*
X31260Y35856D01*
Y35865D01*
Y35866D01*
X31261Y35905D01*
X31265Y35941D01*
X31271Y35976D01*
X31281Y36008D01*
X31291Y36038D01*
X31303Y36066D01*
X31314Y36093D01*
X31326Y36116D01*
X31339Y36138D01*
X31351Y36156D01*
X31363Y36173D01*
X31373Y36186D01*
X31381Y36198D01*
X31388Y36205D01*
X31393Y36210D01*
X31394Y36211D01*
X31421Y36236D01*
X31448Y36256D01*
X31476Y36276D01*
X31506Y36291D01*
X31534Y36305D01*
X31563Y36316D01*
X31591Y36325D01*
X31618Y36333D01*
X31644Y36338D01*
X31668Y36343D01*
X31688Y36345D01*
X31706Y36348D01*
X31721D01*
X31731Y36350D01*
X31741D01*
X31791Y36346D01*
D02*
G37*
G36*
X39775Y24100D02*
X39642D01*
X39421Y24657D01*
X39573D01*
X39678Y24372D01*
X39684Y24355D01*
X39687Y24347D01*
X39689Y24340D01*
X39691Y24334D01*
X39693Y24329D01*
X39694Y24326D01*
Y24325D01*
X39695Y24320D01*
X39698Y24312D01*
X39703Y24297D01*
X39705Y24289D01*
X39707Y24283D01*
X39708Y24279D01*
X39709Y24277D01*
X39739Y24372D01*
X39844Y24657D01*
X39999D01*
X39775Y24100D01*
D02*
G37*
G36*
X33742Y24669D02*
X33760Y24666D01*
X33777Y24662D01*
X33793Y24656D01*
X33808Y24649D01*
X33822Y24642D01*
X33835Y24633D01*
X33847Y24625D01*
X33858Y24617D01*
X33868Y24609D01*
X33876Y24601D01*
X33883Y24594D01*
X33889Y24588D01*
X33893Y24584D01*
X33895Y24581D01*
X33896Y24580D01*
Y24657D01*
X34032D01*
Y24100D01*
X33885D01*
Y24370D01*
Y24385D01*
X33884Y24398D01*
Y24411D01*
X33883Y24422D01*
X33882Y24433D01*
X33881Y24442D01*
X33879Y24458D01*
X33877Y24470D01*
X33876Y24478D01*
X33874Y24483D01*
Y24485D01*
X33869Y24497D01*
X33863Y24508D01*
X33856Y24517D01*
X33850Y24525D01*
X33844Y24530D01*
X33839Y24535D01*
X33836Y24537D01*
X33835Y24538D01*
X33824Y24544D01*
X33813Y24549D01*
X33803Y24552D01*
X33793Y24555D01*
X33785Y24556D01*
X33779Y24557D01*
X33763D01*
X33754Y24555D01*
X33747Y24553D01*
X33740Y24551D01*
X33736Y24549D01*
X33732Y24547D01*
X33730Y24546D01*
X33729Y24545D01*
X33723Y24540D01*
X33718Y24534D01*
X33710Y24523D01*
X33707Y24517D01*
X33705Y24513D01*
X33704Y24510D01*
Y24509D01*
X33703Y24504D01*
X33701Y24498D01*
X33699Y24483D01*
X33698Y24466D01*
X33697Y24448D01*
X33696Y24432D01*
Y24425D01*
Y24418D01*
Y24413D01*
Y24409D01*
Y24406D01*
Y24405D01*
Y24100D01*
X33549D01*
Y24367D01*
Y24381D01*
X33548Y24395D01*
X33547Y24418D01*
X33545Y24438D01*
X33543Y24454D01*
X33541Y24466D01*
X33539Y24475D01*
X33537Y24480D01*
Y24482D01*
X33532Y24495D01*
X33526Y24506D01*
X33519Y24516D01*
X33513Y24524D01*
X33507Y24530D01*
X33502Y24534D01*
X33499Y24537D01*
X33498Y24538D01*
X33488Y24544D01*
X33478Y24549D01*
X33468Y24552D01*
X33459Y24555D01*
X33451Y24556D01*
X33445Y24557D01*
X33440D01*
X33425Y24556D01*
X33412Y24552D01*
X33401Y24547D01*
X33392Y24541D01*
X33386Y24535D01*
X33381Y24530D01*
X33378Y24526D01*
X33377Y24525D01*
X33374Y24520D01*
X33372Y24514D01*
X33368Y24498D01*
X33365Y24481D01*
X33363Y24463D01*
X33362Y24446D01*
X33361Y24438D01*
Y24431D01*
Y24426D01*
Y24422D01*
Y24419D01*
Y24418D01*
Y24100D01*
X33214D01*
Y24456D01*
Y24471D01*
X33215Y24484D01*
Y24496D01*
X33216Y24508D01*
X33219Y24528D01*
X33222Y24544D01*
X33225Y24556D01*
X33227Y24564D01*
X33229Y24569D01*
X33230Y24571D01*
X33239Y24588D01*
X33249Y24603D01*
X33259Y24616D01*
X33270Y24626D01*
X33279Y24635D01*
X33287Y24640D01*
X33292Y24644D01*
X33293Y24645D01*
X33294D01*
X33310Y24653D01*
X33328Y24659D01*
X33345Y24664D01*
X33361Y24667D01*
X33375Y24669D01*
X33387Y24670D01*
X33397D01*
X33415Y24669D01*
X33431Y24666D01*
X33447Y24663D01*
X33460Y24659D01*
X33472Y24654D01*
X33480Y24651D01*
X33486Y24648D01*
X33487Y24647D01*
X33488D01*
X33503Y24638D01*
X33518Y24627D01*
X33531Y24616D01*
X33543Y24606D01*
X33553Y24596D01*
X33561Y24588D01*
X33565Y24583D01*
X33567Y24582D01*
Y24581D01*
X33577Y24597D01*
X33588Y24610D01*
X33598Y24621D01*
X33608Y24631D01*
X33617Y24638D01*
X33624Y24643D01*
X33629Y24646D01*
X33631Y24647D01*
X33646Y24655D01*
X33662Y24660D01*
X33678Y24664D01*
X33692Y24667D01*
X33705Y24669D01*
X33715Y24670D01*
X33724D01*
X33742Y24669D01*
D02*
G37*
G36*
X40226Y24733D02*
X40079D01*
Y24869D01*
X40226D01*
Y24733D01*
D02*
G37*
G36*
X25124Y36348D02*
X25155Y36343D01*
X25184Y36335D01*
X25209Y36328D01*
X25230Y36320D01*
X25245Y36311D01*
X25255Y36306D01*
X25257Y36305D01*
X25259D01*
X25285Y36288D01*
X25310Y36268D01*
X25330Y36250D01*
X25347Y36231D01*
X25360Y36216D01*
X25370Y36203D01*
X25377Y36195D01*
X25379Y36191D01*
Y36328D01*
X25607D01*
Y35045D01*
X25362D01*
Y35513D01*
X25337Y35487D01*
X25312Y35465D01*
X25290Y35447D01*
X25272Y35433D01*
X25255Y35422D01*
X25242Y35415D01*
X25235Y35410D01*
X25232Y35408D01*
X25207Y35398D01*
X25184Y35392D01*
X25160Y35385D01*
X25139Y35382D01*
X25120Y35380D01*
X25105Y35378D01*
X25092D01*
X25062Y35380D01*
X25034Y35383D01*
X25007Y35390D01*
X24980Y35398D01*
X24957Y35408D01*
X24934Y35418D01*
X24914Y35430D01*
X24894Y35443D01*
X24877Y35455D01*
X24862Y35467D01*
X24849Y35477D01*
X24837Y35487D01*
X24829Y35495D01*
X24822Y35502D01*
X24819Y35505D01*
X24817Y35507D01*
X24797Y35532D01*
X24779Y35558D01*
X24764Y35588D01*
X24750Y35617D01*
X24739Y35647D01*
X24730Y35678D01*
X24722Y35707D01*
X24717Y35735D01*
X24712Y35763D01*
X24709Y35788D01*
X24705Y35810D01*
X24704Y35830D01*
X24702Y35846D01*
Y35858D01*
Y35865D01*
Y35868D01*
X24704Y35910D01*
X24707Y35948D01*
X24712Y35985D01*
X24720Y36020D01*
X24729Y36050D01*
X24737Y36080D01*
X24749Y36106D01*
X24759Y36130D01*
X24769Y36151D01*
X24779Y36170D01*
X24789Y36185D01*
X24797Y36198D01*
X24805Y36208D01*
X24810Y36216D01*
X24814Y36220D01*
X24815Y36221D01*
X24837Y36245D01*
X24860Y36263D01*
X24882Y36281D01*
X24905Y36296D01*
X24929Y36308D01*
X24952Y36318D01*
X24974Y36326D01*
X24995Y36333D01*
X25015Y36340D01*
X25034Y36343D01*
X25049Y36346D01*
X25064Y36348D01*
X25075Y36350D01*
X25090D01*
X25124Y36348D01*
D02*
G37*
G36*
X38453Y24305D02*
X38163D01*
Y24452D01*
X38453D01*
Y24305D01*
D02*
G37*
G36*
X39152Y24668D02*
X39170Y24666D01*
X39186Y24664D01*
X39200Y24661D01*
X39214Y24657D01*
X39226Y24654D01*
X39237Y24650D01*
X39246Y24646D01*
X39255Y24643D01*
X39262Y24639D01*
X39268Y24636D01*
X39272Y24634D01*
X39275Y24632D01*
X39277Y24630D01*
X39278D01*
X39297Y24614D01*
X39313Y24595D01*
X39327Y24575D01*
X39337Y24555D01*
X39345Y24538D01*
X39348Y24530D01*
X39351Y24523D01*
X39353Y24518D01*
X39354Y24514D01*
X39355Y24511D01*
Y24510D01*
X39222Y24486D01*
X39217Y24500D01*
X39211Y24511D01*
X39205Y24521D01*
X39200Y24528D01*
X39195Y24534D01*
X39191Y24538D01*
X39188Y24540D01*
X39187Y24541D01*
X39178Y24546D01*
X39168Y24550D01*
X39158Y24553D01*
X39148Y24555D01*
X39139Y24556D01*
X39132Y24557D01*
X39125D01*
X39105Y24556D01*
X39088Y24554D01*
X39074Y24551D01*
X39064Y24548D01*
X39056Y24544D01*
X39050Y24541D01*
X39047Y24539D01*
X39046Y24538D01*
X39039Y24530D01*
X39033Y24521D01*
X39029Y24511D01*
X39027Y24500D01*
X39025Y24491D01*
X39024Y24483D01*
Y24478D01*
Y24477D01*
Y24476D01*
Y24462D01*
X39032Y24459D01*
X39042Y24456D01*
X39052Y24452D01*
X39063Y24449D01*
X39087Y24443D01*
X39111Y24437D01*
X39133Y24432D01*
X39143Y24430D01*
X39151Y24428D01*
X39158Y24427D01*
X39163Y24426D01*
X39167Y24425D01*
X39168D01*
X39195Y24420D01*
X39218Y24414D01*
X39238Y24408D01*
X39255Y24403D01*
X39268Y24398D01*
X39277Y24394D01*
X39283Y24392D01*
X39285Y24391D01*
X39299Y24383D01*
X39312Y24374D01*
X39322Y24365D01*
X39331Y24356D01*
X39339Y24348D01*
X39344Y24341D01*
X39347Y24337D01*
X39348Y24335D01*
X39355Y24321D01*
X39361Y24306D01*
X39365Y24292D01*
X39367Y24279D01*
X39369Y24268D01*
X39370Y24259D01*
Y24253D01*
Y24252D01*
Y24251D01*
X39369Y24238D01*
X39368Y24226D01*
X39362Y24203D01*
X39354Y24182D01*
X39345Y24165D01*
X39336Y24152D01*
X39329Y24141D01*
X39325Y24138D01*
X39323Y24135D01*
X39322Y24134D01*
X39321Y24133D01*
X39311Y24125D01*
X39301Y24118D01*
X39279Y24106D01*
X39256Y24098D01*
X39234Y24093D01*
X39215Y24089D01*
X39206Y24088D01*
X39199D01*
X39193Y24087D01*
X39185D01*
X39167Y24088D01*
X39150Y24090D01*
X39135Y24093D01*
X39121Y24096D01*
X39110Y24099D01*
X39101Y24102D01*
X39096Y24104D01*
X39094Y24105D01*
X39078Y24113D01*
X39063Y24121D01*
X39049Y24130D01*
X39037Y24139D01*
X39027Y24147D01*
X39020Y24154D01*
X39015Y24158D01*
X39013Y24160D01*
X39011Y24156D01*
X39010Y24150D01*
X39008Y24145D01*
Y24144D01*
Y24143D01*
X39005Y24133D01*
X39002Y24124D01*
X38999Y24117D01*
X38997Y24111D01*
X38995Y24106D01*
X38994Y24103D01*
X38993Y24101D01*
Y24100D01*
X38847D01*
X38854Y24114D01*
X38860Y24128D01*
X38864Y24141D01*
X38868Y24152D01*
X38871Y24161D01*
X38873Y24168D01*
X38874Y24172D01*
Y24174D01*
X38876Y24189D01*
X38878Y24206D01*
X38879Y24224D01*
X38880Y24242D01*
X38881Y24258D01*
Y24265D01*
Y24271D01*
Y24276D01*
Y24280D01*
Y24282D01*
Y24283D01*
X38879Y24455D01*
Y24472D01*
X38880Y24488D01*
X38881Y24503D01*
X38882Y24516D01*
X38884Y24528D01*
X38885Y24539D01*
X38887Y24549D01*
X38889Y24557D01*
X38891Y24564D01*
X38893Y24571D01*
X38894Y24576D01*
X38896Y24580D01*
X38898Y24585D01*
X38899Y24587D01*
X38908Y24600D01*
X38918Y24611D01*
X38929Y24622D01*
X38940Y24630D01*
X38951Y24637D01*
X38959Y24642D01*
X38965Y24645D01*
X38966Y24646D01*
X38967D01*
X38977Y24650D01*
X38987Y24654D01*
X39010Y24660D01*
X39035Y24664D01*
X39058Y24667D01*
X39070Y24668D01*
X39080Y24669D01*
X39090D01*
X39098Y24670D01*
X39134D01*
X39152Y24668D01*
D02*
G37*
G36*
X29575Y35400D02*
X29089D01*
X29037Y35402D01*
X28992Y35405D01*
X28954Y35408D01*
X28937Y35412D01*
X28920Y35413D01*
X28907Y35417D01*
X28895Y35418D01*
X28884Y35420D01*
X28875Y35423D01*
X28869Y35425D01*
X28864D01*
X28862Y35427D01*
X28860D01*
X28819Y35442D01*
X28784Y35458D01*
X28752Y35475D01*
X28727Y35492D01*
X28706Y35507D01*
X28691Y35518D01*
X28682Y35525D01*
X28679Y35528D01*
X28647Y35563D01*
X28619Y35600D01*
X28596Y35638D01*
X28576Y35675D01*
X28561Y35707D01*
X28554Y35720D01*
X28549Y35732D01*
X28546Y35742D01*
X28542Y35748D01*
X28541Y35753D01*
Y35755D01*
X28527Y35800D01*
X28517Y35846D01*
X28511Y35891D01*
X28506Y35935D01*
X28504Y35955D01*
X28502Y35971D01*
Y35988D01*
X28501Y36001D01*
Y36013D01*
Y36021D01*
Y36026D01*
Y36028D01*
X28502Y36093D01*
X28504Y36123D01*
X28507Y36151D01*
X28511Y36178D01*
X28514Y36203D01*
X28519Y36226D01*
X28522Y36246D01*
X28526Y36265D01*
X28531Y36281D01*
X28534Y36296D01*
X28537Y36308D01*
X28541Y36318D01*
X28542Y36325D01*
X28544Y36328D01*
Y36330D01*
X28561Y36375D01*
X28581Y36415D01*
X28601Y36450D01*
X28621Y36480D01*
X28637Y36505D01*
X28646Y36515D01*
X28652Y36523D01*
X28657Y36530D01*
X28662Y36535D01*
X28664Y36536D01*
X28666Y36538D01*
X28697Y36568D01*
X28729Y36593D01*
X28762Y36613D01*
X28792Y36630D01*
X28819Y36641D01*
X28830Y36646D01*
X28840Y36649D01*
X28847Y36653D01*
X28854Y36655D01*
X28857Y36656D01*
X28859D01*
X28875Y36661D01*
X28894Y36664D01*
X28932Y36671D01*
X28974Y36674D01*
X29014Y36678D01*
X29032Y36679D01*
X29049D01*
X29064Y36681D01*
X29575D01*
Y35400D01*
D02*
G37*
G36*
X35572Y24100D02*
X35425D01*
Y24247D01*
X35572D01*
Y24100D01*
D02*
G37*
G36*
X36402Y24669D02*
X36414Y24667D01*
X36424Y24664D01*
X36434Y24661D01*
X36441Y24657D01*
X36447Y24654D01*
X36451Y24652D01*
X36452Y24651D01*
X36463Y24643D01*
X36474Y24632D01*
X36484Y24620D01*
X36494Y24607D01*
X36502Y24596D01*
X36509Y24586D01*
X36512Y24582D01*
X36513Y24579D01*
X36515Y24578D01*
Y24657D01*
X36652D01*
Y24100D01*
X36505D01*
Y24272D01*
Y24298D01*
X36504Y24321D01*
Y24342D01*
X36503Y24361D01*
X36502Y24378D01*
X36501Y24393D01*
X36500Y24407D01*
X36499Y24418D01*
X36498Y24428D01*
X36497Y24437D01*
X36496Y24443D01*
X36495Y24449D01*
X36494Y24453D01*
X36493Y24456D01*
Y24458D01*
X36488Y24474D01*
X36483Y24487D01*
X36477Y24497D01*
X36472Y24506D01*
X36467Y24512D01*
X36463Y24517D01*
X36461Y24519D01*
X36460Y24520D01*
X36451Y24526D01*
X36442Y24530D01*
X36433Y24534D01*
X36425Y24536D01*
X36417Y24537D01*
X36411Y24538D01*
X36406D01*
X36394Y24537D01*
X36382Y24534D01*
X36370Y24530D01*
X36359Y24526D01*
X36350Y24521D01*
X36343Y24517D01*
X36339Y24514D01*
X36337Y24513D01*
X36291Y24642D01*
X36309Y24651D01*
X36326Y24658D01*
X36343Y24663D01*
X36358Y24667D01*
X36370Y24669D01*
X36380Y24670D01*
X36389D01*
X36402Y24669D01*
D02*
G37*
G36*
X37080Y24668D02*
X37107Y24664D01*
X37132Y24658D01*
X37154Y24652D01*
X37164Y24648D01*
X37172Y24645D01*
X37180Y24642D01*
X37186Y24639D01*
X37191Y24636D01*
X37195Y24635D01*
X37197Y24633D01*
X37198D01*
X37221Y24618D01*
X37242Y24601D01*
X37259Y24584D01*
X37274Y24567D01*
X37285Y24552D01*
X37290Y24545D01*
X37293Y24539D01*
X37296Y24535D01*
X37298Y24531D01*
X37300Y24529D01*
Y24528D01*
X37312Y24502D01*
X37321Y24477D01*
X37327Y24453D01*
X37331Y24431D01*
X37333Y24422D01*
X37334Y24413D01*
X37335Y24405D01*
Y24399D01*
X37336Y24393D01*
Y24389D01*
Y24387D01*
Y24386D01*
X37334Y24351D01*
X37330Y24320D01*
X37328Y24306D01*
X37325Y24292D01*
X37321Y24280D01*
X37318Y24269D01*
X37315Y24258D01*
X37311Y24249D01*
X37308Y24242D01*
X37306Y24235D01*
X37303Y24230D01*
X37302Y24226D01*
X37300Y24224D01*
Y24223D01*
X37285Y24199D01*
X37268Y24179D01*
X37251Y24161D01*
X37234Y24147D01*
X37219Y24136D01*
X37212Y24131D01*
X37206Y24128D01*
X37202Y24125D01*
X37198Y24123D01*
X37196Y24121D01*
X37195D01*
X37169Y24110D01*
X37142Y24101D01*
X37118Y24095D01*
X37095Y24091D01*
X37085Y24090D01*
X37076Y24089D01*
X37068Y24088D01*
X37061D01*
X37056Y24087D01*
X37048D01*
X37025Y24088D01*
X37004Y24091D01*
X36983Y24095D01*
X36964Y24100D01*
X36946Y24106D01*
X36929Y24113D01*
X36914Y24121D01*
X36899Y24129D01*
X36887Y24136D01*
X36875Y24144D01*
X36866Y24151D01*
X36858Y24157D01*
X36851Y24162D01*
X36847Y24166D01*
X36844Y24169D01*
X36843Y24170D01*
X36829Y24186D01*
X36816Y24203D01*
X36805Y24220D01*
X36796Y24238D01*
X36788Y24256D01*
X36781Y24273D01*
X36776Y24290D01*
X36771Y24306D01*
X36768Y24321D01*
X36765Y24335D01*
X36763Y24348D01*
X36762Y24359D01*
Y24368D01*
X36761Y24374D01*
Y24379D01*
Y24380D01*
X36762Y24403D01*
X36764Y24425D01*
X36768Y24446D01*
X36774Y24465D01*
X36780Y24483D01*
X36787Y24500D01*
X36794Y24516D01*
X36801Y24530D01*
X36809Y24543D01*
X36816Y24554D01*
X36823Y24564D01*
X36829Y24572D01*
X36834Y24579D01*
X36838Y24583D01*
X36841Y24586D01*
X36842Y24587D01*
X36858Y24602D01*
X36874Y24614D01*
X36891Y24626D01*
X36909Y24635D01*
X36926Y24643D01*
X36943Y24650D01*
X36960Y24655D01*
X36976Y24660D01*
X36992Y24663D01*
X37006Y24666D01*
X37018Y24667D01*
X37029Y24669D01*
X37038D01*
X37044Y24670D01*
X37050D01*
X37080Y24668D01*
D02*
G37*
G36*
X35942Y24669D02*
X35961Y24666D01*
X35978Y24661D01*
X35993Y24657D01*
X36006Y24652D01*
X36015Y24647D01*
X36021Y24644D01*
X36022Y24643D01*
X36023D01*
X36039Y24633D01*
X36054Y24621D01*
X36066Y24610D01*
X36076Y24599D01*
X36084Y24590D01*
X36090Y24582D01*
X36094Y24577D01*
X36095Y24575D01*
Y24657D01*
X36232D01*
Y23887D01*
X36085D01*
Y24168D01*
X36070Y24152D01*
X36055Y24139D01*
X36042Y24128D01*
X36031Y24120D01*
X36021Y24113D01*
X36013Y24109D01*
X36009Y24106D01*
X36007Y24105D01*
X35992Y24099D01*
X35978Y24095D01*
X35964Y24091D01*
X35951Y24089D01*
X35940Y24088D01*
X35931Y24087D01*
X35923D01*
X35905Y24088D01*
X35888Y24090D01*
X35872Y24094D01*
X35856Y24099D01*
X35842Y24105D01*
X35828Y24111D01*
X35816Y24118D01*
X35804Y24126D01*
X35794Y24133D01*
X35785Y24140D01*
X35777Y24146D01*
X35770Y24152D01*
X35765Y24157D01*
X35761Y24161D01*
X35759Y24163D01*
X35758Y24164D01*
X35746Y24179D01*
X35735Y24195D01*
X35726Y24213D01*
X35718Y24230D01*
X35711Y24248D01*
X35706Y24267D01*
X35701Y24284D01*
X35698Y24301D01*
X35695Y24318D01*
X35693Y24333D01*
X35691Y24346D01*
X35690Y24358D01*
X35689Y24368D01*
Y24375D01*
Y24379D01*
Y24381D01*
X35690Y24406D01*
X35692Y24429D01*
X35695Y24451D01*
X35700Y24472D01*
X35705Y24490D01*
X35710Y24508D01*
X35717Y24524D01*
X35723Y24538D01*
X35729Y24551D01*
X35735Y24562D01*
X35741Y24571D01*
X35746Y24579D01*
X35751Y24585D01*
X35754Y24590D01*
X35756Y24592D01*
X35757Y24593D01*
X35770Y24607D01*
X35784Y24618D01*
X35797Y24629D01*
X35811Y24638D01*
X35825Y24645D01*
X35839Y24651D01*
X35852Y24656D01*
X35865Y24660D01*
X35877Y24664D01*
X35888Y24666D01*
X35897Y24668D01*
X35906Y24669D01*
X35913Y24670D01*
X35922D01*
X35942Y24669D01*
D02*
G37*
G36*
X34455Y24668D02*
X34482Y24664D01*
X34507Y24658D01*
X34529Y24652D01*
X34539Y24648D01*
X34547Y24645D01*
X34555Y24642D01*
X34561Y24639D01*
X34566Y24636D01*
X34570Y24635D01*
X34572Y24633D01*
X34573D01*
X34596Y24618D01*
X34617Y24601D01*
X34634Y24584D01*
X34649Y24567D01*
X34660Y24552D01*
X34665Y24545D01*
X34668Y24539D01*
X34671Y24535D01*
X34673Y24531D01*
X34675Y24529D01*
Y24528D01*
X34687Y24502D01*
X34696Y24477D01*
X34702Y24453D01*
X34706Y24431D01*
X34708Y24422D01*
X34709Y24413D01*
X34710Y24405D01*
Y24399D01*
X34711Y24393D01*
Y24389D01*
Y24387D01*
Y24386D01*
X34709Y24351D01*
X34705Y24320D01*
X34703Y24306D01*
X34700Y24292D01*
X34696Y24280D01*
X34693Y24269D01*
X34690Y24258D01*
X34686Y24249D01*
X34683Y24242D01*
X34681Y24235D01*
X34678Y24230D01*
X34677Y24226D01*
X34675Y24224D01*
Y24223D01*
X34660Y24199D01*
X34643Y24179D01*
X34626Y24161D01*
X34609Y24147D01*
X34594Y24136D01*
X34587Y24131D01*
X34581Y24128D01*
X34577Y24125D01*
X34573Y24123D01*
X34571Y24121D01*
X34570D01*
X34544Y24110D01*
X34517Y24101D01*
X34493Y24095D01*
X34470Y24091D01*
X34460Y24090D01*
X34451Y24089D01*
X34443Y24088D01*
X34436D01*
X34431Y24087D01*
X34423D01*
X34400Y24088D01*
X34379Y24091D01*
X34358Y24095D01*
X34339Y24100D01*
X34321Y24106D01*
X34304Y24113D01*
X34289Y24121D01*
X34274Y24129D01*
X34262Y24136D01*
X34250Y24144D01*
X34241Y24151D01*
X34233Y24157D01*
X34226Y24162D01*
X34222Y24166D01*
X34219Y24169D01*
X34218Y24170D01*
X34204Y24186D01*
X34191Y24203D01*
X34180Y24220D01*
X34171Y24238D01*
X34163Y24256D01*
X34156Y24273D01*
X34151Y24290D01*
X34146Y24306D01*
X34143Y24321D01*
X34140Y24335D01*
X34138Y24348D01*
X34137Y24359D01*
Y24368D01*
X34136Y24374D01*
Y24379D01*
Y24380D01*
X34137Y24403D01*
X34139Y24425D01*
X34143Y24446D01*
X34149Y24465D01*
X34155Y24483D01*
X34162Y24500D01*
X34169Y24516D01*
X34176Y24530D01*
X34184Y24543D01*
X34191Y24554D01*
X34198Y24564D01*
X34204Y24572D01*
X34209Y24579D01*
X34213Y24583D01*
X34216Y24586D01*
X34217Y24587D01*
X34233Y24602D01*
X34249Y24614D01*
X34266Y24626D01*
X34284Y24635D01*
X34301Y24643D01*
X34318Y24650D01*
X34335Y24655D01*
X34351Y24660D01*
X34367Y24663D01*
X34381Y24666D01*
X34393Y24667D01*
X34404Y24669D01*
X34413D01*
X34419Y24670D01*
X34425D01*
X34455Y24668D01*
D02*
G37*
G36*
X40226Y24100D02*
X40079D01*
Y24657D01*
X40226D01*
Y24100D01*
D02*
G37*
G36*
X41000D02*
X40845D01*
Y24421D01*
X40795D01*
X40779Y24420D01*
X40766Y24418D01*
X40755Y24417D01*
X40746Y24415D01*
X40741Y24413D01*
X40737Y24412D01*
X40736D01*
X40727Y24408D01*
X40718Y24403D01*
X40710Y24398D01*
X40703Y24393D01*
X40697Y24388D01*
X40693Y24384D01*
X40690Y24381D01*
X40689Y24380D01*
X40684Y24375D01*
X40679Y24369D01*
X40673Y24361D01*
X40667Y24353D01*
X40653Y24334D01*
X40640Y24315D01*
X40627Y24297D01*
X40622Y24289D01*
X40617Y24281D01*
X40613Y24275D01*
X40610Y24271D01*
X40608Y24268D01*
X40607Y24267D01*
X40495Y24100D01*
X40309D01*
X40403Y24250D01*
X40413Y24266D01*
X40423Y24281D01*
X40432Y24295D01*
X40440Y24307D01*
X40448Y24318D01*
X40456Y24328D01*
X40462Y24337D01*
X40468Y24345D01*
X40474Y24352D01*
X40479Y24358D01*
X40486Y24367D01*
X40490Y24372D01*
X40492Y24374D01*
X40505Y24387D01*
X40518Y24399D01*
X40532Y24410D01*
X40545Y24420D01*
X40557Y24428D01*
X40566Y24434D01*
X40573Y24438D01*
X40574Y24439D01*
X40575D01*
X40556Y24442D01*
X40539Y24446D01*
X40523Y24451D01*
X40508Y24456D01*
X40494Y24462D01*
X40482Y24468D01*
X40470Y24474D01*
X40460Y24480D01*
X40451Y24486D01*
X40443Y24492D01*
X40437Y24497D01*
X40432Y24501D01*
X40427Y24505D01*
X40424Y24508D01*
X40423Y24509D01*
X40422Y24510D01*
X40413Y24521D01*
X40405Y24532D01*
X40398Y24544D01*
X40392Y24556D01*
X40383Y24580D01*
X40377Y24603D01*
X40375Y24613D01*
X40374Y24623D01*
X40373Y24631D01*
X40372Y24639D01*
X40371Y24645D01*
Y24649D01*
Y24652D01*
Y24653D01*
X40372Y24678D01*
X40376Y24701D01*
X40382Y24721D01*
X40388Y24739D01*
X40394Y24754D01*
X40397Y24760D01*
X40400Y24765D01*
X40402Y24769D01*
X40404Y24772D01*
X40405Y24773D01*
Y24774D01*
X40419Y24792D01*
X40433Y24808D01*
X40448Y24821D01*
X40463Y24831D01*
X40475Y24839D01*
X40486Y24844D01*
X40490Y24846D01*
X40492Y24847D01*
X40494Y24848D01*
X40495D01*
X40506Y24852D01*
X40518Y24855D01*
X40532Y24858D01*
X40546Y24860D01*
X40576Y24864D01*
X40605Y24866D01*
X40619Y24867D01*
X40632Y24868D01*
X40644D01*
X40654Y24869D01*
X41000D01*
Y24100D01*
D02*
G37*
G36*
X38734D02*
X38587D01*
Y24869D01*
X38734D01*
Y24100D01*
D02*
G37*
%LPC*%
G36*
X36324Y35843D02*
X36322D01*
Y35793D01*
Y35763D01*
X36324Y35738D01*
X36326Y35718D01*
X36327Y35702D01*
X36329Y35690D01*
X36331Y35682D01*
X36332Y35677D01*
Y35675D01*
X36339Y35658D01*
X36347Y35642D01*
X36357Y35628D01*
X36367Y35617D01*
X36376Y35608D01*
X36384Y35600D01*
X36389Y35597D01*
X36391Y35595D01*
X36414Y35580D01*
X36437Y35570D01*
X36459Y35562D01*
X36477Y35557D01*
X36494Y35553D01*
X36507Y35552D01*
X36519D01*
X36541Y35553D01*
X36559Y35557D01*
X36576Y35563D01*
X36589Y35570D01*
X36601Y35577D01*
X36609Y35583D01*
X36614Y35587D01*
X36616Y35588D01*
X36629Y35603D01*
X36637Y35618D01*
X36644Y35632D01*
X36649Y35647D01*
X36652Y35658D01*
X36654Y35668D01*
Y35675D01*
Y35677D01*
X36652Y35695D01*
X36647Y35712D01*
X36639Y35727D01*
X36631Y35740D01*
X36622Y35750D01*
X36614Y35757D01*
X36609Y35762D01*
X36607Y35763D01*
X36592Y35772D01*
X36572Y35778D01*
X36551Y35785D01*
X36529Y35792D01*
X36507Y35797D01*
X36491Y35802D01*
X36484Y35803D01*
X36479D01*
X36476Y35805D01*
X36474D01*
X36437Y35813D01*
X36407Y35820D01*
X36381Y35826D01*
X36359Y35831D01*
X36342Y35836D01*
X36331Y35840D01*
X36324Y35843D01*
D02*
G37*
G36*
X29317Y36465D02*
X29145D01*
X29122Y36463D01*
X29100D01*
X29080Y36461D01*
X29064D01*
X29049Y36460D01*
X29035Y36458D01*
X29024Y36456D01*
X29014D01*
X29005Y36455D01*
X28999Y36453D01*
X28992Y36451D01*
X28989D01*
X28962Y36445D01*
X28939Y36436D01*
X28919Y36426D01*
X28900Y36416D01*
X28887Y36406D01*
X28877Y36398D01*
X28870Y36393D01*
X28869Y36391D01*
X28852Y36373D01*
X28837Y36353D01*
X28824Y36331D01*
X28814Y36311D01*
X28805Y36295D01*
X28799Y36280D01*
X28795Y36270D01*
X28794Y36268D01*
Y36266D01*
X28785Y36235D01*
X28779Y36198D01*
X28774Y36160D01*
X28770Y36123D01*
X28769Y36091D01*
X28767Y36076D01*
Y36065D01*
Y36055D01*
Y36046D01*
Y36041D01*
Y36040D01*
X28769Y35986D01*
X28770Y35940D01*
X28775Y35900D01*
X28777Y35883D01*
X28780Y35866D01*
X28782Y35853D01*
X28785Y35840D01*
X28787Y35830D01*
X28789Y35821D01*
X28790Y35813D01*
X28792Y35808D01*
X28794Y35807D01*
Y35805D01*
X28804Y35775D01*
X28815Y35748D01*
X28827Y35727D01*
X28837Y35710D01*
X28847Y35697D01*
X28855Y35687D01*
X28860Y35682D01*
X28862Y35680D01*
X28879Y35667D01*
X28895Y35657D01*
X28914Y35648D01*
X28930Y35640D01*
X28945Y35635D01*
X28957Y35632D01*
X28964Y35628D01*
X28967D01*
X28987Y35625D01*
X29012Y35622D01*
X29037Y35620D01*
X29064Y35618D01*
X29087Y35617D01*
X29317D01*
Y36465D01*
D02*
G37*
G36*
X31749Y36150D02*
X31721D01*
X31704Y36146D01*
X31674Y36138D01*
X31648Y36126D01*
X31624Y36113D01*
X31604Y36098D01*
X31591Y36086D01*
X31583Y36078D01*
X31579Y36076D01*
Y36075D01*
X31558Y36045D01*
X31541Y36011D01*
X31529Y35976D01*
X31521Y35943D01*
X31516Y35911D01*
X31514Y35898D01*
Y35888D01*
X31513Y35878D01*
Y35871D01*
Y35866D01*
Y35865D01*
X31516Y35815D01*
X31523Y35773D01*
X31534Y35737D01*
X31546Y35707D01*
X31558Y35682D01*
X31564Y35673D01*
X31569Y35665D01*
X31573Y35660D01*
X31576Y35655D01*
X31579Y35653D01*
Y35652D01*
X31591Y35638D01*
X31604Y35628D01*
X31631Y35610D01*
X31658Y35597D01*
X31684Y35588D01*
X31706Y35582D01*
X31723Y35580D01*
X31729Y35578D01*
X31739D01*
X31758Y35580D01*
X31774Y35582D01*
X31806Y35590D01*
X31833Y35602D01*
X31856Y35615D01*
X31876Y35628D01*
X31889Y35640D01*
X31898Y35648D01*
X31901Y35652D01*
X31923Y35682D01*
X31939Y35715D01*
X31949Y35752D01*
X31958Y35785D01*
X31963Y35815D01*
X31964Y35828D01*
Y35840D01*
X31966Y35850D01*
Y35856D01*
Y35861D01*
Y35863D01*
X31963Y35911D01*
X31956Y35955D01*
X31946Y35991D01*
X31933Y36021D01*
X31921Y36045D01*
X31916Y36053D01*
X31911Y36061D01*
X31908Y36066D01*
X31904Y36071D01*
X31901Y36075D01*
X31888Y36088D01*
X31876Y36100D01*
X31848Y36118D01*
X31821Y36131D01*
X31796Y36140D01*
X31773Y36146D01*
X31756Y36148D01*
X31749Y36150D01*
D02*
G37*
G36*
X32824Y36161D02*
X32799D01*
X32784Y36158D01*
X32754Y36150D01*
X32729Y36138D01*
X32707Y36126D01*
X32691Y36113D01*
X32677Y36101D01*
X32671Y36093D01*
X32667Y36091D01*
Y36090D01*
X32657Y36076D01*
X32647Y36060D01*
X32634Y36025D01*
X32624Y35986D01*
X32616Y35948D01*
X32612Y35915D01*
X32611Y35900D01*
Y35886D01*
X32609Y35875D01*
Y35866D01*
Y35861D01*
Y35860D01*
Y35833D01*
X32611Y35808D01*
X32614Y35783D01*
X32617Y35762D01*
X32622Y35743D01*
X32627Y35725D01*
X32632Y35708D01*
X32637Y35693D01*
X32644Y35682D01*
X32649Y35670D01*
X32654Y35662D01*
X32657Y35653D01*
X32662Y35648D01*
X32664Y35643D01*
X32667Y35642D01*
Y35640D01*
X32691Y35617D01*
X32714Y35600D01*
X32737Y35588D01*
X32759Y35580D01*
X32779Y35575D01*
X32794Y35573D01*
X32804Y35572D01*
X32807D01*
X32827Y35573D01*
X32846Y35577D01*
X32862Y35580D01*
X32879Y35587D01*
X32907Y35602D01*
X32932Y35620D01*
X32952Y35638D01*
X32965Y35653D01*
X32970Y35660D01*
X32974Y35665D01*
X32977Y35667D01*
Y35668D01*
X32985Y35682D01*
X32992Y35698D01*
X33004Y35732D01*
X33010Y35767D01*
X33017Y35802D01*
X33020Y35833D01*
Y35848D01*
X33022Y35860D01*
Y35870D01*
Y35876D01*
Y35881D01*
Y35883D01*
Y35908D01*
X33019Y35933D01*
X33017Y35955D01*
X33012Y35975D01*
X33004Y36010D01*
X32992Y36040D01*
X32982Y36063D01*
X32972Y36078D01*
X32965Y36088D01*
X32964Y36091D01*
X32940Y36115D01*
X32915Y36131D01*
X32891Y36145D01*
X32867Y36153D01*
X32847Y36158D01*
X32831Y36160D01*
X32824Y36161D01*
D02*
G37*
G36*
X25165Y36156D02*
X25142D01*
X25127Y36153D01*
X25099Y36145D01*
X25074Y36133D01*
X25054Y36121D01*
X25037Y36108D01*
X25024Y36096D01*
X25017Y36088D01*
X25014Y36086D01*
Y36085D01*
X25004Y36070D01*
X24994Y36055D01*
X24979Y36020D01*
X24969Y35985D01*
X24960Y35948D01*
X24957Y35916D01*
X24955Y35903D01*
Y35890D01*
X24954Y35880D01*
Y35873D01*
Y35868D01*
Y35866D01*
Y35838D01*
X24955Y35812D01*
X24959Y35788D01*
X24962Y35765D01*
X24967Y35745D01*
X24972Y35727D01*
X24977Y35710D01*
X24982Y35695D01*
X24989Y35683D01*
X24994Y35672D01*
X24999Y35662D01*
X25002Y35655D01*
X25007Y35648D01*
X25009Y35645D01*
X25012Y35642D01*
X25034Y35618D01*
X25059Y35602D01*
X25082Y35590D01*
X25104Y35582D01*
X25124Y35577D01*
X25139Y35575D01*
X25150Y35573D01*
X25154D01*
X25170Y35575D01*
X25185Y35577D01*
X25214Y35585D01*
X25240Y35597D01*
X25262Y35612D01*
X25279Y35625D01*
X25292Y35637D01*
X25300Y35645D01*
X25304Y35648D01*
X25314Y35663D01*
X25324Y35680D01*
X25339Y35717D01*
X25350Y35755D01*
X25357Y35792D01*
X25362Y35826D01*
X25364Y35841D01*
Y35855D01*
X25365Y35865D01*
Y35873D01*
Y35878D01*
Y35880D01*
X25362Y35928D01*
X25355Y35970D01*
X25347Y36005D01*
X25335Y36035D01*
X25325Y36056D01*
X25315Y36073D01*
X25309Y36083D01*
X25307Y36086D01*
X25284Y36110D01*
X25259Y36126D01*
X25234Y36140D01*
X25209Y36148D01*
X25189Y36153D01*
X25172Y36155D01*
X25165Y36156D01*
D02*
G37*
G36*
X39025Y24366D02*
X39024D01*
Y24336D01*
Y24318D01*
X39025Y24303D01*
X39026Y24291D01*
X39027Y24281D01*
X39028Y24274D01*
X39029Y24269D01*
X39030Y24266D01*
Y24265D01*
X39034Y24255D01*
X39039Y24245D01*
X39045Y24237D01*
X39051Y24230D01*
X39056Y24225D01*
X39061Y24220D01*
X39064Y24218D01*
X39065Y24217D01*
X39079Y24208D01*
X39093Y24202D01*
X39106Y24197D01*
X39117Y24194D01*
X39127Y24192D01*
X39135Y24191D01*
X39142D01*
X39155Y24192D01*
X39166Y24194D01*
X39176Y24198D01*
X39184Y24202D01*
X39191Y24206D01*
X39196Y24210D01*
X39199Y24212D01*
X39200Y24213D01*
X39208Y24222D01*
X39213Y24231D01*
X39217Y24239D01*
X39220Y24248D01*
X39222Y24255D01*
X39223Y24261D01*
Y24265D01*
Y24266D01*
X39222Y24277D01*
X39219Y24287D01*
X39214Y24296D01*
X39209Y24304D01*
X39204Y24310D01*
X39199Y24314D01*
X39196Y24317D01*
X39195Y24318D01*
X39186Y24323D01*
X39174Y24327D01*
X39161Y24331D01*
X39148Y24335D01*
X39135Y24338D01*
X39125Y24341D01*
X39121Y24342D01*
X39118D01*
X39116Y24343D01*
X39115D01*
X39093Y24348D01*
X39075Y24352D01*
X39059Y24356D01*
X39046Y24359D01*
X39036Y24362D01*
X39029Y24364D01*
X39025Y24366D01*
D02*
G37*
G36*
X42352Y30425D02*
X42340D01*
X42337Y30425D01*
X42333Y30424D01*
X42328Y30424D01*
X42322Y30423D01*
X42316Y30422D01*
X42304Y30419D01*
X42297Y30417D01*
X42290Y30415D01*
X42283Y30412D01*
X42277Y30409D01*
X42270Y30405D01*
X42264Y30401D01*
X42263Y30400D01*
X42263Y30400D01*
X42261Y30398D01*
X42258Y30396D01*
X42256Y30394D01*
X42253Y30391D01*
X42249Y30387D01*
X42246Y30383D01*
X42242Y30378D01*
X42238Y30373D01*
X42234Y30367D01*
X42231Y30362D01*
X42227Y30355D01*
X42224Y30348D01*
X42220Y30340D01*
X42218Y30332D01*
X42259Y30322D01*
Y30323D01*
X42260Y30324D01*
X42261Y30325D01*
X42261Y30328D01*
X42263Y30331D01*
X42264Y30334D01*
X42268Y30342D01*
X42272Y30350D01*
X42278Y30358D01*
X42284Y30366D01*
X42288Y30370D01*
X42292Y30373D01*
X42292D01*
X42293Y30374D01*
X42294Y30375D01*
X42295Y30375D01*
X42298Y30377D01*
X42300Y30378D01*
X42306Y30381D01*
X42314Y30384D01*
X42323Y30387D01*
X42334Y30388D01*
X42345Y30389D01*
X42349D01*
X42352Y30389D01*
X42355D01*
X42358Y30388D01*
X42362Y30387D01*
X42367Y30387D01*
X42377Y30385D01*
X42387Y30382D01*
X42397Y30377D01*
X42402Y30375D01*
X42407Y30371D01*
X42408D01*
X42409Y30370D01*
X42410Y30370D01*
X42412Y30368D01*
X42416Y30364D01*
X42421Y30359D01*
X42427Y30352D01*
X42432Y30344D01*
X42438Y30335D01*
X42442Y30324D01*
Y30323D01*
X42442Y30323D01*
X42443Y30321D01*
X42444Y30319D01*
X42444Y30316D01*
X42445Y30313D01*
X42446Y30309D01*
X42447Y30305D01*
X42449Y30296D01*
X42450Y30285D01*
X42451Y30274D01*
X42452Y30262D01*
Y30262D01*
Y30261D01*
Y30259D01*
Y30256D01*
X42451Y30252D01*
X42451Y30248D01*
Y30243D01*
X42450Y30238D01*
X42449Y30227D01*
X42447Y30215D01*
X42444Y30203D01*
X42440Y30191D01*
Y30191D01*
X42440Y30190D01*
X42439Y30188D01*
X42438Y30186D01*
X42437Y30184D01*
X42435Y30181D01*
X42431Y30174D01*
X42426Y30167D01*
X42419Y30159D01*
X42412Y30152D01*
X42403Y30146D01*
X42403D01*
X42402Y30145D01*
X42401Y30145D01*
X42399Y30143D01*
X42397Y30142D01*
X42394Y30141D01*
X42387Y30138D01*
X42379Y30135D01*
X42370Y30133D01*
X42360Y30132D01*
X42349Y30131D01*
X42345D01*
X42343Y30131D01*
X42340Y30132D01*
X42336Y30132D01*
X42332Y30132D01*
X42328Y30133D01*
X42318Y30136D01*
X42308Y30140D01*
X42303Y30142D01*
X42298Y30145D01*
X42293Y30147D01*
X42288Y30151D01*
X42288Y30152D01*
X42287Y30152D01*
X42286Y30153D01*
X42284Y30155D01*
X42283Y30157D01*
X42280Y30160D01*
X42278Y30163D01*
X42275Y30167D01*
X42272Y30170D01*
X42269Y30175D01*
X42267Y30180D01*
X42264Y30185D01*
X42261Y30192D01*
X42259Y30198D01*
X42257Y30204D01*
X42255Y30212D01*
X42212Y30201D01*
Y30201D01*
X42213Y30199D01*
X42214Y30196D01*
X42215Y30192D01*
X42216Y30188D01*
X42219Y30183D01*
X42221Y30178D01*
X42224Y30172D01*
X42226Y30165D01*
X42230Y30159D01*
X42234Y30152D01*
X42238Y30146D01*
X42243Y30139D01*
X42248Y30133D01*
X42254Y30127D01*
X42261Y30122D01*
X42261Y30121D01*
X42262Y30120D01*
X42264Y30119D01*
X42267Y30117D01*
X42270Y30115D01*
X42274Y30113D01*
X42279Y30111D01*
X42284Y30108D01*
X42290Y30105D01*
X42296Y30103D01*
X42303Y30101D01*
X42311Y30099D01*
X42319Y30097D01*
X42327Y30096D01*
X42336Y30095D01*
X42345Y30095D01*
X42350D01*
X42354Y30095D01*
X42358Y30095D01*
X42363Y30096D01*
X42369Y30096D01*
X42375Y30097D01*
X42388Y30100D01*
X42402Y30103D01*
X42409Y30106D01*
X42417Y30109D01*
X42423Y30112D01*
X42429Y30115D01*
X42430Y30116D01*
X42431Y30116D01*
X42432Y30117D01*
X42435Y30120D01*
X42437Y30122D01*
X42441Y30124D01*
X42444Y30127D01*
X42448Y30131D01*
X42452Y30135D01*
X42456Y30140D01*
X42460Y30145D01*
X42464Y30150D01*
X42468Y30156D01*
X42472Y30162D01*
X42476Y30169D01*
X42479Y30177D01*
Y30177D01*
X42480Y30178D01*
X42481Y30181D01*
X42481Y30184D01*
X42483Y30187D01*
X42484Y30192D01*
X42486Y30197D01*
X42487Y30202D01*
X42489Y30209D01*
X42490Y30215D01*
X42492Y30222D01*
X42493Y30229D01*
X42495Y30246D01*
X42496Y30262D01*
Y30263D01*
Y30264D01*
Y30267D01*
X42495Y30271D01*
Y30275D01*
X42495Y30280D01*
X42494Y30286D01*
X42493Y30292D01*
X42492Y30298D01*
X42491Y30306D01*
X42488Y30320D01*
X42483Y30335D01*
X42480Y30342D01*
X42477Y30349D01*
X42476Y30350D01*
X42476Y30351D01*
X42475Y30353D01*
X42473Y30355D01*
X42471Y30358D01*
X42469Y30362D01*
X42466Y30366D01*
X42463Y30370D01*
X42455Y30380D01*
X42446Y30389D01*
X42435Y30398D01*
X42429Y30402D01*
X42422Y30406D01*
X42422Y30406D01*
X42421Y30407D01*
X42419Y30407D01*
X42416Y30409D01*
X42413Y30410D01*
X42409Y30412D01*
X42404Y30414D01*
X42399Y30416D01*
X42394Y30417D01*
X42388Y30419D01*
X42375Y30422D01*
X42360Y30424D01*
X42352Y30425D01*
D02*
G37*
G36*
X42600Y30420D02*
X42558D01*
Y30100D01*
X42600D01*
Y30420D01*
D02*
G37*
G36*
X35967Y24554D02*
X35953D01*
X35944Y24552D01*
X35927Y24547D01*
X35912Y24540D01*
X35900Y24533D01*
X35890Y24525D01*
X35882Y24518D01*
X35878Y24513D01*
X35876Y24512D01*
Y24511D01*
X35870Y24502D01*
X35864Y24493D01*
X35855Y24472D01*
X35849Y24451D01*
X35844Y24429D01*
X35842Y24410D01*
X35841Y24402D01*
Y24394D01*
X35840Y24388D01*
Y24384D01*
Y24381D01*
Y24380D01*
Y24363D01*
X35841Y24347D01*
X35843Y24333D01*
X35845Y24319D01*
X35848Y24307D01*
X35851Y24296D01*
X35854Y24286D01*
X35857Y24277D01*
X35861Y24270D01*
X35864Y24263D01*
X35867Y24257D01*
X35869Y24253D01*
X35872Y24249D01*
X35873Y24247D01*
X35875Y24245D01*
X35888Y24231D01*
X35903Y24221D01*
X35917Y24214D01*
X35930Y24209D01*
X35942Y24206D01*
X35951Y24205D01*
X35958Y24204D01*
X35960D01*
X35970Y24205D01*
X35979Y24206D01*
X35996Y24211D01*
X36012Y24218D01*
X36025Y24227D01*
X36035Y24235D01*
X36043Y24242D01*
X36048Y24247D01*
X36050Y24249D01*
X36056Y24258D01*
X36062Y24268D01*
X36071Y24290D01*
X36078Y24313D01*
X36082Y24335D01*
X36085Y24356D01*
X36086Y24365D01*
Y24373D01*
X36087Y24379D01*
Y24384D01*
Y24387D01*
Y24388D01*
X36085Y24417D01*
X36081Y24442D01*
X36076Y24463D01*
X36069Y24481D01*
X36063Y24494D01*
X36057Y24504D01*
X36053Y24510D01*
X36052Y24512D01*
X36038Y24526D01*
X36023Y24536D01*
X36008Y24544D01*
X35993Y24549D01*
X35981Y24552D01*
X35971Y24553D01*
X35967Y24554D01*
D02*
G37*
G36*
X40845Y24739D02*
X40667D01*
X40656Y24738D01*
X40632D01*
X40627Y24737D01*
X40615D01*
X40612Y24736D01*
X40611D01*
X40598Y24733D01*
X40586Y24729D01*
X40576Y24724D01*
X40567Y24719D01*
X40561Y24714D01*
X40556Y24710D01*
X40553Y24707D01*
X40552Y24706D01*
X40545Y24696D01*
X40540Y24686D01*
X40536Y24676D01*
X40534Y24666D01*
X40532Y24657D01*
X40531Y24650D01*
Y24645D01*
Y24643D01*
X40532Y24631D01*
X40533Y24620D01*
X40536Y24610D01*
X40539Y24601D01*
X40542Y24594D01*
X40544Y24589D01*
X40546Y24586D01*
X40547Y24585D01*
X40553Y24577D01*
X40561Y24570D01*
X40568Y24565D01*
X40575Y24560D01*
X40581Y24557D01*
X40586Y24555D01*
X40590Y24553D01*
X40591D01*
X40597Y24551D01*
X40605Y24550D01*
X40614Y24549D01*
X40624Y24548D01*
X40647Y24546D01*
X40671Y24545D01*
X40693D01*
X40703Y24544D01*
X40845D01*
Y24739D01*
D02*
G37*
G36*
X37055Y24550D02*
X37038D01*
X37028Y24548D01*
X37010Y24543D01*
X36994Y24536D01*
X36980Y24528D01*
X36968Y24519D01*
X36960Y24512D01*
X36955Y24507D01*
X36953Y24506D01*
Y24505D01*
X36940Y24487D01*
X36930Y24467D01*
X36923Y24446D01*
X36918Y24426D01*
X36915Y24407D01*
X36914Y24399D01*
Y24393D01*
X36913Y24387D01*
Y24383D01*
Y24380D01*
Y24379D01*
X36915Y24349D01*
X36919Y24324D01*
X36926Y24302D01*
X36933Y24284D01*
X36940Y24269D01*
X36944Y24264D01*
X36947Y24259D01*
X36949Y24256D01*
X36951Y24253D01*
X36953Y24252D01*
Y24251D01*
X36960Y24243D01*
X36968Y24237D01*
X36984Y24226D01*
X37000Y24218D01*
X37016Y24213D01*
X37029Y24209D01*
X37039Y24208D01*
X37043Y24207D01*
X37049D01*
X37060Y24208D01*
X37070Y24209D01*
X37089Y24214D01*
X37105Y24221D01*
X37119Y24229D01*
X37131Y24237D01*
X37139Y24244D01*
X37144Y24249D01*
X37146Y24251D01*
X37159Y24269D01*
X37169Y24289D01*
X37175Y24311D01*
X37180Y24331D01*
X37183Y24349D01*
X37184Y24357D01*
Y24364D01*
X37185Y24370D01*
Y24374D01*
Y24377D01*
Y24378D01*
X37183Y24407D01*
X37179Y24433D01*
X37173Y24455D01*
X37165Y24473D01*
X37158Y24487D01*
X37155Y24492D01*
X37152Y24497D01*
X37150Y24500D01*
X37148Y24503D01*
X37146Y24505D01*
X37138Y24513D01*
X37131Y24520D01*
X37114Y24531D01*
X37098Y24539D01*
X37083Y24544D01*
X37069Y24548D01*
X37059Y24549D01*
X37055Y24550D01*
D02*
G37*
G36*
X34430D02*
X34413D01*
X34403Y24548D01*
X34385Y24543D01*
X34369Y24536D01*
X34355Y24528D01*
X34343Y24519D01*
X34335Y24512D01*
X34330Y24507D01*
X34328Y24506D01*
Y24505D01*
X34315Y24487D01*
X34305Y24467D01*
X34298Y24446D01*
X34293Y24426D01*
X34290Y24407D01*
X34289Y24399D01*
Y24393D01*
X34288Y24387D01*
Y24383D01*
Y24380D01*
Y24379D01*
X34290Y24349D01*
X34294Y24324D01*
X34301Y24302D01*
X34308Y24284D01*
X34315Y24269D01*
X34319Y24264D01*
X34322Y24259D01*
X34324Y24256D01*
X34326Y24253D01*
X34328Y24252D01*
Y24251D01*
X34335Y24243D01*
X34343Y24237D01*
X34359Y24226D01*
X34375Y24218D01*
X34391Y24213D01*
X34404Y24209D01*
X34414Y24208D01*
X34418Y24207D01*
X34424D01*
X34435Y24208D01*
X34445Y24209D01*
X34464Y24214D01*
X34480Y24221D01*
X34494Y24229D01*
X34506Y24237D01*
X34514Y24244D01*
X34519Y24249D01*
X34521Y24251D01*
X34534Y24269D01*
X34544Y24289D01*
X34550Y24311D01*
X34555Y24331D01*
X34558Y24349D01*
X34559Y24357D01*
Y24364D01*
X34560Y24370D01*
Y24374D01*
Y24377D01*
Y24378D01*
X34558Y24407D01*
X34554Y24433D01*
X34548Y24455D01*
X34540Y24473D01*
X34533Y24487D01*
X34530Y24492D01*
X34527Y24497D01*
X34525Y24500D01*
X34523Y24503D01*
X34521Y24505D01*
X34513Y24513D01*
X34506Y24520D01*
X34489Y24531D01*
X34473Y24539D01*
X34458Y24544D01*
X34444Y24548D01*
X34434Y24549D01*
X34430Y24550D01*
D02*
G37*
G36*
X41862Y30420D02*
X41731D01*
X41724Y30419D01*
X41716Y30419D01*
X41708Y30419D01*
X41700Y30418D01*
X41694Y30417D01*
X41692D01*
X41691Y30416D01*
X41690Y30416D01*
X41685Y30415D01*
X41680Y30413D01*
X41674Y30411D01*
X41667Y30409D01*
X41661Y30405D01*
X41654Y30402D01*
X41654Y30401D01*
X41652Y30400D01*
X41649Y30397D01*
X41645Y30394D01*
X41641Y30390D01*
X41637Y30384D01*
X41632Y30378D01*
X41629Y30371D01*
Y30370D01*
X41628Y30370D01*
X41628Y30369D01*
X41627Y30367D01*
X41625Y30363D01*
X41624Y30358D01*
X41622Y30351D01*
X41620Y30344D01*
X41619Y30336D01*
X41619Y30327D01*
Y30327D01*
Y30325D01*
Y30323D01*
X41619Y30320D01*
X41619Y30317D01*
X41620Y30313D01*
X41621Y30308D01*
X41622Y30303D01*
X41625Y30292D01*
X41627Y30287D01*
X41630Y30281D01*
X41633Y30275D01*
X41636Y30269D01*
X41640Y30263D01*
X41645Y30258D01*
X41645Y30258D01*
X41646Y30257D01*
X41648Y30256D01*
X41650Y30254D01*
X41653Y30251D01*
X41657Y30249D01*
X41661Y30246D01*
X41666Y30244D01*
X41672Y30241D01*
X41679Y30239D01*
X41687Y30236D01*
X41695Y30234D01*
X41705Y30232D01*
X41715Y30231D01*
X41726Y30230D01*
X41738Y30230D01*
X41820D01*
Y30100D01*
X41862D01*
Y30420D01*
D02*
G37*
G36*
X33883Y36161D02*
X33880D01*
X33853Y36160D01*
X33828Y36153D01*
X33807Y36143D01*
X33788Y36133D01*
X33773Y36123D01*
X33763Y36113D01*
X33755Y36106D01*
X33753Y36105D01*
X33735Y36081D01*
X33722Y36056D01*
X33712Y36030D01*
X33705Y36003D01*
X33700Y35980D01*
X33699Y35961D01*
X33697Y35953D01*
Y35948D01*
Y35945D01*
Y35943D01*
X34065D01*
X34063Y35978D01*
X34057Y36010D01*
X34048Y36036D01*
X34038Y36060D01*
X34030Y36078D01*
X34022Y36091D01*
X34015Y36098D01*
X34013Y36101D01*
X33992Y36121D01*
X33970Y36136D01*
X33948Y36146D01*
X33927Y36155D01*
X33908Y36158D01*
X33893Y36160D01*
X33883Y36161D01*
D02*
G37*
G36*
X39753Y36468D02*
X39493D01*
X39473Y36466D01*
X39426D01*
X39415Y36465D01*
X39393D01*
X39386Y36463D01*
X39385D01*
X39361Y36458D01*
X39341Y36453D01*
X39325Y36445D01*
X39311Y36438D01*
X39300Y36430D01*
X39293Y36425D01*
X39288Y36420D01*
X39286Y36418D01*
X39275Y36403D01*
X39266Y36388D01*
X39261Y36371D01*
X39256Y36356D01*
X39255Y36343D01*
X39253Y36331D01*
Y36325D01*
Y36321D01*
X39255Y36300D01*
X39260Y36280D01*
X39265Y36263D01*
X39271Y36248D01*
X39280Y36236D01*
X39285Y36228D01*
X39290Y36223D01*
X39291Y36221D01*
X39306Y36208D01*
X39325Y36198D01*
X39341Y36190D01*
X39358Y36183D01*
X39373Y36180D01*
X39385Y36176D01*
X39393Y36175D01*
X39405D01*
X39415Y36173D01*
X39471D01*
X39505Y36171D01*
X39753D01*
Y36468D01*
D02*
G37*
G36*
Y35958D02*
X39485D01*
X39458Y35956D01*
X39435Y35955D01*
X39413Y35953D01*
X39395D01*
X39378Y35951D01*
X39363Y35950D01*
X39351Y35948D01*
X39341Y35946D01*
X39333Y35945D01*
X39326Y35943D01*
X39318Y35941D01*
X39315Y35940D01*
X39296Y35931D01*
X39280Y35923D01*
X39265Y35913D01*
X39253Y35903D01*
X39245Y35895D01*
X39238Y35886D01*
X39235Y35881D01*
X39233Y35880D01*
X39223Y35865D01*
X39216Y35848D01*
X39211Y35831D01*
X39208Y35817D01*
X39206Y35803D01*
X39205Y35793D01*
Y35787D01*
Y35783D01*
X39206Y35758D01*
X39210Y35737D01*
X39216Y35718D01*
X39223Y35703D01*
X39230Y35690D01*
X39236Y35682D01*
X39240Y35675D01*
X39241Y35673D01*
X39256Y35660D01*
X39271Y35648D01*
X39288Y35640D01*
X39303Y35633D01*
X39316Y35628D01*
X39326Y35625D01*
X39333Y35623D01*
X39336D01*
X39345Y35622D01*
X39355D01*
X39366Y35620D01*
X39380D01*
X39408Y35618D01*
X39438D01*
X39466Y35617D01*
X39753D01*
Y35958D01*
D02*
G37*
G36*
X24142Y36161D02*
X24139D01*
X24112Y36160D01*
X24087Y36153D01*
X24066Y36143D01*
X24047Y36133D01*
X24032Y36123D01*
X24022Y36113D01*
X24014Y36106D01*
X24012Y36105D01*
X23994Y36081D01*
X23981Y36056D01*
X23971Y36030D01*
X23964Y36003D01*
X23959Y35980D01*
X23957Y35961D01*
X23956Y35953D01*
Y35948D01*
Y35945D01*
Y35943D01*
X24324D01*
X24322Y35978D01*
X24316Y36010D01*
X24307Y36036D01*
X24297Y36060D01*
X24289Y36078D01*
X24281Y36091D01*
X24274Y36098D01*
X24272Y36101D01*
X24251Y36121D01*
X24229Y36136D01*
X24207Y36146D01*
X24186Y36155D01*
X24167Y36158D01*
X24152Y36160D01*
X24142Y36161D01*
D02*
G37*
G36*
X26157Y34481D02*
X26155D01*
X26142Y34480D01*
X26130Y34477D01*
X26119Y34472D01*
X26110Y34467D01*
X26102Y34462D01*
X26097Y34457D01*
X26093Y34453D01*
X26092Y34452D01*
X26083Y34441D01*
X26076Y34428D01*
X26071Y34415D01*
X26068Y34402D01*
X26065Y34390D01*
X26065Y34381D01*
X26064Y34377D01*
Y34374D01*
Y34372D01*
Y34372D01*
X26248D01*
X26247Y34389D01*
X26244Y34405D01*
X26239Y34418D01*
X26234Y34430D01*
X26230Y34439D01*
X26226Y34446D01*
X26223Y34449D01*
X26222Y34451D01*
X26211Y34461D01*
X26200Y34468D01*
X26189Y34473D01*
X26179Y34477D01*
X26170Y34479D01*
X26162Y34480D01*
X26157Y34481D01*
D02*
G37*
G36*
X42050Y30425D02*
X42044D01*
X42041Y30425D01*
X42038D01*
X42033Y30424D01*
X42029Y30424D01*
X42019Y30422D01*
X42009Y30420D01*
X41998Y30417D01*
X41988Y30414D01*
X41987D01*
X41986Y30413D01*
X41985Y30412D01*
X41983Y30412D01*
X41978Y30409D01*
X41972Y30405D01*
X41965Y30400D01*
X41959Y30395D01*
X41951Y30387D01*
X41946Y30380D01*
Y30379D01*
X41945Y30379D01*
X41944Y30377D01*
X41943Y30376D01*
X41942Y30374D01*
X41941Y30371D01*
X41938Y30365D01*
X41935Y30357D01*
X41933Y30349D01*
X41931Y30340D01*
X41930Y30330D01*
X41971Y30327D01*
Y30327D01*
Y30328D01*
X41971Y30330D01*
X41971Y30332D01*
X41972Y30334D01*
X41973Y30337D01*
X41975Y30344D01*
X41978Y30351D01*
X41981Y30358D01*
X41986Y30366D01*
X41993Y30372D01*
X41994Y30373D01*
X41995Y30373D01*
X41996Y30375D01*
X41998Y30376D01*
X42001Y30377D01*
X42004Y30378D01*
X42007Y30380D01*
X42011Y30381D01*
X42015Y30382D01*
X42019Y30384D01*
X42024Y30385D01*
X42030Y30386D01*
X42035Y30387D01*
X42042Y30387D01*
X42055D01*
X42058Y30387D01*
X42061Y30387D01*
X42070Y30386D01*
X42079Y30384D01*
X42088Y30382D01*
X42097Y30378D01*
X42101Y30376D01*
X42104Y30373D01*
X42105Y30372D01*
X42107Y30371D01*
X42110Y30368D01*
X42113Y30364D01*
X42116Y30359D01*
X42119Y30353D01*
X42121Y30346D01*
X42122Y30339D01*
Y30338D01*
Y30336D01*
X42121Y30333D01*
X42120Y30329D01*
X42119Y30325D01*
X42117Y30320D01*
X42114Y30315D01*
X42110Y30311D01*
X42109Y30310D01*
X42108Y30310D01*
X42107Y30309D01*
X42105Y30308D01*
X42103Y30307D01*
X42100Y30306D01*
X42097Y30304D01*
X42093Y30303D01*
X42088Y30301D01*
X42083Y30299D01*
X42077Y30297D01*
X42071Y30295D01*
X42063Y30293D01*
X42055Y30291D01*
X42046Y30288D01*
X42045D01*
X42044Y30288D01*
X42041Y30287D01*
X42038Y30286D01*
X42033Y30286D01*
X42028Y30284D01*
X42023Y30283D01*
X42018Y30281D01*
X42006Y30278D01*
X41994Y30275D01*
X41989Y30273D01*
X41983Y30271D01*
X41979Y30270D01*
X41975Y30268D01*
X41975D01*
X41974Y30268D01*
X41973Y30267D01*
X41971Y30266D01*
X41966Y30263D01*
X41959Y30259D01*
X41953Y30254D01*
X41946Y30249D01*
X41939Y30242D01*
X41934Y30235D01*
Y30235D01*
X41934Y30234D01*
X41933Y30233D01*
X41932Y30232D01*
X41930Y30228D01*
X41927Y30222D01*
X41924Y30216D01*
X41922Y30208D01*
X41921Y30199D01*
X41920Y30190D01*
Y30189D01*
Y30189D01*
Y30187D01*
X41921Y30186D01*
Y30183D01*
X41921Y30181D01*
X41922Y30174D01*
X41924Y30167D01*
X41926Y30159D01*
X41930Y30150D01*
X41935Y30142D01*
Y30142D01*
X41936Y30141D01*
X41937Y30140D01*
X41938Y30138D01*
X41941Y30134D01*
X41946Y30129D01*
X41952Y30124D01*
X41959Y30118D01*
X41968Y30112D01*
X41977Y30107D01*
X41978D01*
X41979Y30107D01*
X41980Y30106D01*
X41982Y30105D01*
X41985Y30104D01*
X41988Y30103D01*
X41991Y30102D01*
X41995Y30101D01*
X42004Y30099D01*
X42014Y30097D01*
X42026Y30095D01*
X42038Y30095D01*
X42043D01*
X42045Y30095D01*
X42049D01*
X42054Y30095D01*
X42058Y30096D01*
X42064Y30096D01*
X42075Y30097D01*
X42087Y30100D01*
X42100Y30103D01*
X42111Y30107D01*
X42112D01*
X42112Y30107D01*
X42114Y30108D01*
X42116Y30110D01*
X42118Y30111D01*
X42121Y30112D01*
X42128Y30117D01*
X42135Y30122D01*
X42143Y30129D01*
X42150Y30137D01*
X42157Y30145D01*
Y30146D01*
X42158Y30147D01*
X42159Y30148D01*
X42159Y30150D01*
X42161Y30152D01*
X42162Y30155D01*
X42164Y30158D01*
X42165Y30162D01*
X42169Y30171D01*
X42172Y30180D01*
X42174Y30192D01*
X42174Y30203D01*
X42134Y30206D01*
Y30206D01*
Y30205D01*
X42134Y30204D01*
Y30202D01*
X42133Y30198D01*
X42132Y30192D01*
X42130Y30186D01*
X42128Y30179D01*
X42125Y30173D01*
X42122Y30167D01*
X42121Y30166D01*
X42120Y30164D01*
X42117Y30161D01*
X42114Y30158D01*
X42109Y30154D01*
X42104Y30150D01*
X42097Y30145D01*
X42090Y30142D01*
X42089D01*
X42089Y30141D01*
X42087Y30141D01*
X42086Y30140D01*
X42084Y30140D01*
X42081Y30139D01*
X42075Y30137D01*
X42068Y30135D01*
X42060Y30134D01*
X42050Y30133D01*
X42040Y30132D01*
X42036D01*
X42032Y30133D01*
X42026Y30133D01*
X42020Y30134D01*
X42012Y30135D01*
X42005Y30137D01*
X41998Y30140D01*
X41998D01*
X41997Y30140D01*
X41995Y30141D01*
X41992Y30142D01*
X41988Y30145D01*
X41983Y30147D01*
X41979Y30151D01*
X41974Y30155D01*
X41970Y30159D01*
X41970Y30159D01*
X41969Y30161D01*
X41967Y30164D01*
X41966Y30167D01*
X41964Y30172D01*
X41962Y30176D01*
X41961Y30181D01*
X41961Y30187D01*
Y30187D01*
Y30189D01*
X41961Y30192D01*
X41962Y30195D01*
X41963Y30199D01*
X41965Y30204D01*
X41967Y30209D01*
X41970Y30213D01*
X41971Y30213D01*
X41972Y30215D01*
X41974Y30217D01*
X41977Y30219D01*
X41981Y30222D01*
X41986Y30225D01*
X41992Y30229D01*
X41999Y30231D01*
X42000Y30232D01*
X42001Y30232D01*
X42003Y30233D01*
X42005Y30234D01*
X42008Y30234D01*
X42011Y30235D01*
X42014Y30236D01*
X42018Y30237D01*
X42023Y30239D01*
X42028Y30240D01*
X42034Y30241D01*
X42041Y30243D01*
X42048Y30245D01*
X42056Y30247D01*
X42056D01*
X42058Y30247D01*
X42060Y30248D01*
X42063Y30249D01*
X42067Y30250D01*
X42070Y30251D01*
X42080Y30254D01*
X42090Y30256D01*
X42100Y30260D01*
X42110Y30263D01*
X42114Y30266D01*
X42117Y30267D01*
X42118D01*
X42118Y30268D01*
X42120Y30268D01*
X42121Y30269D01*
X42125Y30272D01*
X42130Y30276D01*
X42136Y30280D01*
X42142Y30285D01*
X42147Y30291D01*
X42152Y30297D01*
Y30297D01*
X42152Y30298D01*
X42153Y30300D01*
X42155Y30303D01*
X42157Y30308D01*
X42159Y30314D01*
X42161Y30321D01*
X42162Y30329D01*
X42162Y30337D01*
Y30337D01*
Y30338D01*
Y30339D01*
X42162Y30341D01*
X42162Y30345D01*
X42161Y30352D01*
X42159Y30359D01*
X42157Y30366D01*
X42153Y30374D01*
X42149Y30382D01*
Y30382D01*
X42148Y30383D01*
X42146Y30385D01*
X42143Y30390D01*
X42139Y30394D01*
X42133Y30399D01*
X42126Y30405D01*
X42118Y30410D01*
X42109Y30414D01*
X42108D01*
X42107Y30415D01*
X42106Y30415D01*
X42104Y30416D01*
X42102Y30417D01*
X42099Y30418D01*
X42095Y30419D01*
X42092Y30420D01*
X42083Y30422D01*
X42073Y30424D01*
X42062Y30425D01*
X42050Y30425D01*
D02*
G37*
G36*
X24543Y34475D02*
X24528D01*
X24520Y34473D01*
X24505Y34469D01*
X24492Y34463D01*
X24480Y34457D01*
X24470Y34449D01*
X24464Y34443D01*
X24459Y34439D01*
X24458Y34438D01*
Y34437D01*
X24447Y34422D01*
X24439Y34406D01*
X24433Y34388D01*
X24429Y34372D01*
X24426Y34356D01*
X24425Y34349D01*
Y34344D01*
X24424Y34339D01*
Y34336D01*
Y34333D01*
Y34332D01*
X24426Y34307D01*
X24429Y34287D01*
X24435Y34268D01*
X24441Y34253D01*
X24447Y34241D01*
X24450Y34237D01*
X24453Y34232D01*
X24454Y34230D01*
X24456Y34227D01*
X24458Y34227D01*
Y34226D01*
X24464Y34219D01*
X24470Y34214D01*
X24484Y34205D01*
X24497Y34198D01*
X24510Y34194D01*
X24521Y34191D01*
X24529Y34190D01*
X24533Y34189D01*
X24538D01*
X24547Y34190D01*
X24555Y34191D01*
X24571Y34195D01*
X24584Y34201D01*
X24596Y34207D01*
X24606Y34214D01*
X24613Y34220D01*
X24617Y34224D01*
X24618Y34226D01*
X24629Y34241D01*
X24638Y34257D01*
X24643Y34276D01*
X24647Y34292D01*
X24649Y34307D01*
X24650Y34314D01*
Y34320D01*
X24651Y34325D01*
Y34328D01*
Y34331D01*
Y34332D01*
X24649Y34356D01*
X24646Y34377D01*
X24641Y34396D01*
X24634Y34411D01*
X24628Y34422D01*
X24626Y34427D01*
X24623Y34431D01*
X24622Y34433D01*
X24620Y34436D01*
X24618Y34437D01*
X24612Y34444D01*
X24606Y34450D01*
X24592Y34459D01*
X24578Y34466D01*
X24566Y34470D01*
X24554Y34473D01*
X24546Y34474D01*
X24543Y34475D01*
D02*
G37*
%LPD*%
G36*
X41820Y30268D02*
X41734D01*
X41731Y30268D01*
X41728D01*
X41724Y30268D01*
X41715Y30270D01*
X41706Y30271D01*
X41696Y30274D01*
X41687Y30278D01*
X41683Y30280D01*
X41680Y30283D01*
X41679Y30283D01*
X41677Y30286D01*
X41674Y30289D01*
X41671Y30294D01*
X41668Y30300D01*
X41665Y30308D01*
X41663Y30316D01*
X41662Y30326D01*
Y30326D01*
Y30327D01*
Y30329D01*
X41663Y30333D01*
X41664Y30338D01*
X41665Y30343D01*
X41667Y30349D01*
X41669Y30355D01*
X41673Y30360D01*
X41673Y30361D01*
X41674Y30363D01*
X41677Y30365D01*
X41680Y30368D01*
X41684Y30371D01*
X41688Y30374D01*
X41694Y30377D01*
X41699Y30379D01*
X41700D01*
X41701Y30380D01*
X41704Y30380D01*
X41708Y30381D01*
X41714Y30381D01*
X41720Y30382D01*
X41728Y30382D01*
X41820D01*
Y30268D01*
D02*
G37*
D27*
X41600Y28800D02*
X42600D01*
Y23800D02*
Y29800D01*
X41600Y23800D02*
X42600D01*
X41600D02*
Y29800D01*
X42600D01*
M02*
