%FSLAX24Y24*%
%MOIN*%
G70*
G01*
G75*
G04 Layer_Color=255*
%ADD10R,0.0472X0.0551*%
%ADD11R,0.0551X0.0472*%
%ADD12O,0.0689X0.0217*%
%ADD13O,0.0217X0.0689*%
%ADD14R,0.0906X0.0197*%
%ADD15R,0.0984X0.0787*%
%ADD16R,0.0945X0.1339*%
%ADD17R,0.0945X0.0787*%
%ADD18C,0.0120*%
%ADD19C,0.0200*%
%ADD20C,0.0250*%
%ADD21C,0.0550*%
%ADD22C,0.0591*%
%ADD23R,0.0591X0.0591*%
%ADD24C,0.0472*%
%ADD25C,0.0240*%
%ADD26C,0.0500*%
D21*
X39004Y32550D02*
D03*
X39595Y33141D02*
D03*
X37823Y32550D02*
D03*
X38414Y33141D02*
D03*
X36642Y32550D02*
D03*
X37233Y33141D02*
D03*
X35461Y32550D02*
D03*
X36052Y33141D02*
D03*
X34280Y32550D02*
D03*
X34870Y33141D02*
D03*
X33099Y32550D02*
D03*
X33689Y33141D02*
D03*
X31918Y32550D02*
D03*
X32508Y33141D02*
D03*
X29556Y32550D02*
D03*
X31327Y33141D02*
D03*
X28374Y32550D02*
D03*
X30737D02*
D03*
X41367D02*
D03*
X41957Y33141D02*
D03*
X30146D02*
D03*
X40776D02*
D03*
X28965D02*
D03*
X27193Y32550D02*
D03*
X26603Y33141D02*
D03*
X40185Y32550D02*
D03*
X27784Y33141D02*
D03*
X26012Y32550D02*
D03*
X25422Y33141D02*
D03*
X24831Y32550D02*
D03*
X24241Y33141D02*
D03*
X23650Y32550D02*
D03*
D22*
X42100Y24300D02*
D03*
Y25300D02*
D03*
Y26300D02*
D03*
Y27300D02*
D03*
Y28300D02*
D03*
D23*
Y29300D02*
D03*
D24*
X28100Y28100D02*
D03*
X27313D02*
D03*
M02*
