%FSLAX24Y24*%
%MOIN*%
G70*
G01*
G75*
G04 Layer_Physical_Order=2*
G04 Layer_Color=16711680*
%ADD10R,0.0472X0.0551*%
%ADD11R,0.0551X0.0472*%
%ADD12O,0.0689X0.0217*%
%ADD13O,0.0217X0.0689*%
%ADD14R,0.0906X0.0197*%
%ADD15R,0.0984X0.0787*%
%ADD16R,0.0945X0.1339*%
%ADD17R,0.0945X0.0787*%
%ADD18C,0.0120*%
%ADD19C,0.0200*%
%ADD20C,0.0250*%
%ADD21C,0.0550*%
%ADD22C,0.0591*%
%ADD23R,0.0591X0.0591*%
%ADD24C,0.0472*%
%ADD25C,0.0240*%
%ADD26C,0.0500*%
D18*
X30737Y29763D02*
Y32550D01*
Y29763D02*
X32600Y27900D01*
Y25600D02*
Y27900D01*
X30720Y26680D02*
Y28780D01*
X30146Y29354D02*
X30720Y28780D01*
X30146Y29354D02*
Y33141D01*
X30500Y26500D02*
Y28656D01*
X29556Y29600D02*
X30500Y28656D01*
X30280Y24920D02*
Y28565D01*
X28965Y29880D02*
X30280Y28565D01*
X30000Y26400D02*
Y28533D01*
X28374Y30159D02*
X30000Y28533D01*
X29580Y26720D02*
Y28642D01*
X27784Y30438D02*
X29580Y28642D01*
X29300Y27000D02*
Y28611D01*
X27193Y30718D02*
X29300Y28611D01*
X35741Y31800D02*
X35800Y31741D01*
Y29500D02*
Y31741D01*
X35700Y29400D02*
X35800Y29500D01*
X35700Y29200D02*
Y29400D01*
X36052Y27952D02*
Y33141D01*
X34000Y25900D02*
X36052Y27952D01*
X34000Y24000D02*
Y25400D01*
X36642Y28042D01*
Y32550D01*
X34700Y24000D02*
Y25200D01*
X37233Y27733D01*
Y33141D01*
X37823Y27423D02*
Y32550D01*
X35200Y24800D02*
X37823Y27423D01*
X38400Y26000D02*
X38414Y26014D01*
Y33141D01*
X39000Y32546D02*
X39004Y32550D01*
X39000Y26400D02*
Y32546D01*
X39400Y26900D02*
X39700Y26600D01*
X39400Y26900D02*
Y27400D01*
X39595Y27595D01*
Y33141D01*
X40185Y27862D02*
Y32550D01*
X39820Y27497D02*
X40185Y27862D01*
X39820Y27120D02*
Y27497D01*
X39700Y27000D02*
X39820Y27120D01*
X42100Y29100D02*
Y29300D01*
X40100Y27100D02*
X42100Y29100D01*
X35461Y29761D02*
Y32550D01*
X34600Y28900D02*
X35461Y29761D01*
X34600Y28500D02*
Y28900D01*
X35100Y29900D02*
Y30300D01*
X34870Y30530D02*
X35100Y30300D01*
X34870Y30530D02*
Y33141D01*
X34700Y29900D02*
Y30300D01*
X34280Y30720D02*
X34700Y30300D01*
X34280Y30720D02*
Y32550D01*
X34200Y29900D02*
Y30200D01*
X33689Y30711D02*
X34200Y30200D01*
X33689Y30711D02*
Y33141D01*
X33800Y28500D02*
Y30000D01*
X33099Y30701D02*
X33800Y30000D01*
X33099Y30701D02*
Y32550D01*
X32508Y30792D02*
Y33141D01*
Y30792D02*
X33400Y29900D01*
X31918Y29882D02*
Y32550D01*
Y29882D02*
X33400Y28400D01*
X30720Y26680D02*
X31500Y25900D01*
X29556Y29600D02*
Y32550D01*
X30500Y26500D02*
X31500Y25500D01*
X30280Y24920D02*
X30300Y24900D01*
X28965Y29880D02*
Y33141D01*
X28374Y30159D02*
Y32550D01*
X29580Y26720D02*
X29600Y26700D01*
X27784Y30438D02*
Y33141D01*
X27193Y30718D02*
Y32550D01*
X26603Y30997D02*
Y33141D01*
Y30997D02*
X28800Y28800D01*
Y27300D02*
Y28800D01*
X29700Y23900D02*
Y24300D01*
X29490Y23690D02*
X29700Y23900D01*
X28110Y23690D02*
X29490D01*
X28100Y23700D02*
X28110Y23690D01*
D19*
X24000Y33800D02*
X42300D01*
X40776Y33141D02*
Y33724D01*
X23650Y32550D02*
Y33450D01*
X24000Y33800D01*
X42300D02*
X42700Y33400D01*
Y28900D02*
Y33400D01*
X42100Y28300D02*
X42700Y28900D01*
X23800Y25900D02*
X25000Y27100D01*
X23300Y25900D02*
X23800D01*
X27700D02*
X27800D01*
X25000Y27100D02*
X26800Y25300D01*
X27900D01*
X29100Y24100D01*
X26900Y25000D02*
X27554Y24346D01*
X24800Y25000D02*
X26900D01*
X27700Y26800D02*
X28300Y27400D01*
X27700Y25900D02*
Y26800D01*
D21*
X39004Y32550D02*
D03*
X39595Y33141D02*
D03*
X37823Y32550D02*
D03*
X38414Y33141D02*
D03*
X36642Y32550D02*
D03*
X37233Y33141D02*
D03*
X35461Y32550D02*
D03*
X36052Y33141D02*
D03*
X34280Y32550D02*
D03*
X34870Y33141D02*
D03*
X33099Y32550D02*
D03*
X33689Y33141D02*
D03*
X31918Y32550D02*
D03*
X32508Y33141D02*
D03*
X29556Y32550D02*
D03*
X31327Y33141D02*
D03*
X28374Y32550D02*
D03*
X30737D02*
D03*
X41367D02*
D03*
X41957Y33141D02*
D03*
X30146D02*
D03*
X40776D02*
D03*
X28965D02*
D03*
X27193Y32550D02*
D03*
X26603Y33141D02*
D03*
X40185Y32550D02*
D03*
X27784Y33141D02*
D03*
X26012Y32550D02*
D03*
X25422Y33141D02*
D03*
X24831Y32550D02*
D03*
X24241Y33141D02*
D03*
X23650Y32550D02*
D03*
D22*
X42100Y24300D02*
D03*
Y25300D02*
D03*
Y26300D02*
D03*
Y27300D02*
D03*
Y28300D02*
D03*
D23*
Y29300D02*
D03*
D24*
X28100Y28100D02*
D03*
X27313D02*
D03*
D25*
X35741Y31800D02*
D03*
X35700Y29200D02*
D03*
X34000Y25900D02*
D03*
Y24000D02*
D03*
X34700D02*
D03*
X35200Y24800D02*
D03*
X38400Y26000D02*
D03*
X39000Y26400D02*
D03*
X39700Y26600D02*
D03*
Y27000D02*
D03*
X40100Y27100D02*
D03*
X34600Y28500D02*
D03*
X35100Y29900D02*
D03*
X34700D02*
D03*
X34200D02*
D03*
X33800Y28500D02*
D03*
X33400Y29900D02*
D03*
Y28400D02*
D03*
X32600Y25600D02*
D03*
X31500Y25900D02*
D03*
Y25500D02*
D03*
X30300Y24900D02*
D03*
X30000Y26400D02*
D03*
X29600Y26700D02*
D03*
X29300Y27000D02*
D03*
X28800Y27300D02*
D03*
X29700Y24300D02*
D03*
X28100Y23700D02*
D03*
D26*
X25000Y27100D02*
D03*
X23300Y25900D02*
D03*
X27700D02*
D03*
X29100Y24100D02*
D03*
X27554Y24346D02*
D03*
X24800Y25000D02*
D03*
X28300Y27400D02*
D03*
M02*
