%FSLAX24Y24*%
%MOIN*%
G70*
G01*
G75*
G04 Layer_Color=16711935*
%ADD10R,0.0472X0.0551*%
%ADD11R,0.0551X0.0472*%
%ADD12O,0.0689X0.0217*%
%ADD13O,0.0217X0.0689*%
%ADD14R,0.0906X0.0197*%
%ADD15R,0.0984X0.0787*%
%ADD16R,0.0945X0.1339*%
%ADD17R,0.0945X0.0787*%
%ADD18C,0.0120*%
%ADD19C,0.0200*%
%ADD20C,0.0250*%
%ADD21C,0.0550*%
%ADD22C,0.0591*%
%ADD23R,0.0591X0.0591*%
%ADD24C,0.0472*%
%ADD25C,0.0240*%
%ADD26C,0.0500*%
%ADD27C,0.0100*%
%ADD28C,0.0236*%
%ADD29C,0.0098*%
%ADD30C,0.0079*%
%ADD31R,0.0552X0.0631*%
%ADD32R,0.0631X0.0552*%
%ADD33O,0.0769X0.0297*%
%ADD34O,0.0297X0.0769*%
%ADD35R,0.0986X0.0277*%
%ADD36R,0.1064X0.0867*%
%ADD37R,0.1025X0.1419*%
%ADD38R,0.1025X0.0867*%
%ADD39C,0.0630*%
%ADD40C,0.0671*%
%ADD41R,0.0671X0.0671*%
%ADD42C,0.0552*%
%ADD43C,0.0080*%
%ADD44C,0.0039*%
%ADD45C,0.0010*%
D44*
X31583Y25386D02*
G03*
X31583Y25386I-197J0D01*
G01*
X26777Y24724D02*
X27623D01*
X26777Y25276D02*
X27623D01*
Y24724D02*
Y25276D01*
X26777Y24724D02*
X26777Y25276D01*
X28277Y24724D02*
X29123D01*
X28277Y25276D02*
X29123D01*
Y24724D02*
Y25276D01*
X28277Y24724D02*
Y25276D01*
X36377Y29324D02*
X37223D01*
X36377Y29876D02*
X37223D01*
Y29324D02*
Y29876D01*
X36377Y29324D02*
X36377Y29876D01*
X25623Y23724D02*
X25623Y24276D01*
X24777Y23724D02*
Y24276D01*
Y23724D02*
X25623D01*
X24777Y24276D02*
X25623D01*
X23277Y29876D02*
X24123D01*
X23277Y29324D02*
X24123D01*
X23277D02*
Y29876D01*
X24123Y29324D02*
X24123Y29876D01*
X23277Y23724D02*
X24123D01*
X23277Y24276D02*
X24123D01*
Y23724D02*
Y24276D01*
X23277Y23724D02*
X23277Y24276D01*
X26624Y26623D02*
X27176Y26623D01*
X26624Y25777D02*
X27176D01*
Y26623D01*
X26624Y25777D02*
Y26623D01*
X24777Y29324D02*
Y29876D01*
X25623Y29324D02*
Y29876D01*
X24777D02*
X25623D01*
X24777Y29324D02*
X25623D01*
X34969Y25031D02*
Y28969D01*
X31031Y25031D02*
Y28969D01*
X34969D01*
X31031Y25031D02*
X34969D01*
X40724Y28523D02*
X41276Y28523D01*
X40724Y27677D02*
X41276D01*
Y28523D01*
X40724Y27677D02*
Y28523D01*
X36776Y27677D02*
Y28523D01*
X36224Y27677D02*
Y28523D01*
X36776D01*
X36224Y27677D02*
X36776Y27677D01*
X40376D02*
Y28523D01*
X39824Y27677D02*
Y28523D01*
X40376D01*
X39824Y27677D02*
X40376Y27677D01*
D45*
X22400Y38400D02*
X42900D01*
X22400Y23400D02*
Y38400D01*
Y23400D02*
X42900D01*
Y38400D01*
M02*
